<svg width="24" height="26" viewBox="0 0 24 26" fill="none" xmlns="http://www.w3.org/2000/svg">
<path d="M11.1361 0.925298C11.6033 0.424873 12.3967 0.424873 12.8639 0.925298L14.687 2.8781C14.9648 3.17562 15.3761 3.30927 15.7757 3.23183L18.3985 2.7236C19.0706 2.59336 19.7124 3.05966 19.7962 3.73913L20.1233 6.39058C20.1732 6.79455 20.4274 7.14444 20.7962 7.31668L23.2168 8.44713C23.8371 8.73682 24.0822 9.49132 23.7507 10.0903L22.4568 12.4276C22.2597 12.7838 22.2597 13.2162 22.4568 13.5724L23.7507 15.9097C24.0822 16.5087 23.8371 17.2632 23.2168 17.5529L20.7962 18.6833C20.4274 18.8556 20.1732 19.2054 20.1233 19.6094L19.7962 22.2609C19.7124 22.9403 19.0706 23.4066 18.3985 23.2764L15.7757 22.7682C15.3761 22.6907 14.9648 22.8244 14.687 23.1219L12.8639 25.0747C12.3967 25.5751 11.6033 25.5751 11.1361 25.0747L9.31301 23.1219C9.03524 22.8244 8.62392 22.6907 8.22432 22.7682L5.60154 23.2764C4.92943 23.4066 4.28762 22.9403 4.20379 22.2609L3.87667 19.6094C3.82683 19.2054 3.57262 18.8556 3.20383 18.6833L0.783224 17.5529C0.16292 17.2632 -0.0822309 16.5087 0.24933 15.9097L1.54317 13.5724C1.7403 13.2162 1.7403 12.7838 1.54317 12.4276L0.24933 10.0903C-0.0822309 9.49132 0.16292 8.73682 0.783224 8.44713L3.20383 7.31668C3.57262 7.14444 3.82683 6.79455 3.87667 6.39058L4.20379 3.73913C4.28762 3.05966 4.92943 2.59336 5.60155 2.7236L8.22432 3.23183C8.62392 3.30927 9.03524 3.17562 9.31301 2.8781L11.1361 0.925298Z" fill="#FF5B23"/>
</svg>
