<svg width="32" height="32" viewBox="0 0 32 32" fill="none" xmlns="http://www.w3.org/2000/svg">
<path d="M15.6959 16.6665C11.5966 16.6665 7.95111 18.7073 5.6302 21.8745C5.13067 22.5561 4.88091 22.8969 4.88908 23.3575C4.8954 23.7134 5.11213 24.1624 5.38369 24.3821C5.73519 24.6665 6.22229 24.6665 7.19648 24.6665H24.1953C25.1695 24.6665 25.6566 24.6665 26.0081 24.3821C26.2797 24.1624 26.4964 23.7134 26.5027 23.3575C26.5109 22.8969 26.2611 22.5561 25.7616 21.8745C23.4407 18.7073 19.7952 16.6665 15.6959 16.6665Z" fill="#FFCEBD" stroke="#FFCEBD" stroke-width="2.33333" stroke-linecap="round" stroke-linejoin="round"/>
<path d="M15.6957 12.6668C18.1503 12.6668 20.1402 10.6414 20.1402 8.14295C20.1402 5.64452 18.1503 3.61914 15.6957 3.61914C13.2411 3.61914 11.2513 5.64452 11.2513 8.14295C11.2513 10.6414 13.2411 12.6668 15.6957 12.6668Z" fill="#FFCEBD" stroke="#FFCEBD" stroke-width="2.33333" stroke-linecap="round" stroke-linejoin="round"/>
<rect x="16.8887" y="16" width="12.6667" height="12.6667" rx="6.33333" fill="#FF5B23"/>
<path d="M19.6031 22.3332H23.2221M23.2221 22.3332H26.8411M23.2221 22.3332V18.7141M23.2221 22.3332V25.9522" stroke="#FFCEBD" stroke-width="1.81481" stroke-linecap="round"/>
</svg>
