<svg width="32" height="32" viewBox="0 0 32 32" fill="none" xmlns="http://www.w3.org/2000/svg">
<path d="M9.33325 16C9.33325 14.2319 10.0356 12.5362 11.2859 11.286C12.5361 10.0358 14.2318 9.33337 15.9999 9.33337C17.768 9.33337 19.4637 10.0358 20.714 11.286C21.9642 12.5362 22.6666 14.2319 22.6666 16V24H9.33325V16Z" fill="#E80000"/>
<path d="M15.9999 16V24V16Z" fill="#E80000"/>
<path d="M6.6665 26.6668C6.6665 25.9595 6.94746 25.2813 7.44755 24.7812C7.94765 24.2811 8.62593 24.0001 9.33317 24.0001H22.6665C23.3737 24.0001 24.052 24.2811 24.5521 24.7812C25.0522 25.2813 25.3332 25.9595 25.3332 26.6668V29.3335H6.6665V26.6668Z" fill="#FFBDBD"/>
<path d="M27.9998 16.0001H29.3332M24.6665 6.00008L23.9998 6.66675M2.6665 16.0001H3.99984M15.9998 2.66675V4.00008M6.5721 6.57208L7.51477 7.51475" stroke="#FFBDBD" stroke-width="1.5" stroke-linecap="round" stroke-linejoin="round"/>
</svg>
