<svg width="32" height="32" viewBox="0 0 32 32" fill="none" xmlns="http://www.w3.org/2000/svg">
<path d="M10.6849 25.0598L10.7035 25.1495C11.2085 27.5822 13.4253 29.3333 16.0001 29.3333C18.5748 29.3333 20.7917 27.5822 21.2966 25.1495L21.3152 25.0598C21.429 24.5115 20.9938 24 20.4136 24H11.5866C11.0063 24 10.5711 24.5115 10.6849 25.0598Z" fill="#0088FF"/>
<path d="M18.6577 6.13673L18.6484 6.09187C18.3959 4.87551 17.2875 3.99996 16.0001 3.99996C14.7127 3.99996 13.6043 4.87551 13.3518 6.09186L13.3425 6.13673C13.2856 6.41086 13.5032 6.66663 13.7933 6.66663L18.2068 6.66663C18.497 6.66663 18.7146 6.41087 18.6577 6.13673Z" fill="#B2DBFF"/>
<path d="M6.66662 14.6667C6.66662 9.51205 10.8453 5.33337 16 5.33337C21.1546 5.33337 25.3333 9.51205 25.3333 14.6667V18.9396C25.3333 19.1992 25.3878 19.456 25.4932 19.6932L27.1667 23.4585C27.5586 24.3402 26.9131 25.3334 25.9483 25.3334H6.05163C5.08675 25.3334 4.44134 24.3402 4.83322 23.4585L6.5067 19.6932C6.61214 19.456 6.66662 19.1992 6.66662 18.9396V14.6667Z" fill="#B2DBFF"/>
</svg>
