<svg width="32" height="32" viewBox="0 0 32 32" fill="none" xmlns="http://www.w3.org/2000/svg">
<path d="M24.9352 28H7.06476C3.95558 28 2.03513 24.6081 3.63479 21.942L12.57 7.04993C14.1236 4.46057 17.8764 4.46057 19.43 7.04993L28.3652 21.942C29.9649 24.6081 28.0444 28 24.9352 28Z" fill="#FF5B23"/>
<path d="M16.5 12C16.4711 11.8825 16.4135 11.7699 16.3229 11.6868C16.2324 11.6038 16.1179 11.5571 16 11.5571C15.8821 11.5571 15.7676 11.6038 15.6771 11.6868C15.5865 11.7699 15.5289 11.8825 15.5 12C15.4676 12.1333 15.4367 12.2667 15.4074 12.4C15.1439 13.6 15.0082 14.8 15.0004 16C15.0001 16.0368 15 16.0735 15 16.1103C15 17.2735 15.1342 18.4368 15.4025 19.6C15.4332 19.7333 15.4657 19.8667 15.5 20C15.5303 20.1167 15.5883 20.2285 15.6788 20.311C15.7691 20.3935 15.8828 20.4398 16 20.4398C16.1172 20.4398 16.2309 20.3935 16.3212 20.311C16.4117 20.2285 16.4697 20.1167 16.5 20C16.5343 19.8667 16.5668 19.7333 16.5975 19.6C16.8658 18.4368 17 17.2735 17 16.1103C17 16.0735 16.9999 16.0368 16.9996 16C16.9918 14.8 16.8561 13.6 16.5926 12.4C16.5633 12.2667 16.5324 12.1333 16.5 12Z" fill="#FFCEBD"/>
<circle cx="1.33333" cy="1.33333" r="0.833333" transform="matrix(-1 0 0 1 17.3333 21.3333)" fill="#FFCEBD" stroke="#FFCEBD"/>
</svg>
