<svg width="36" height="36" viewBox="0 0 36 36" fill="none" xmlns="http://www.w3.org/2000/svg">
<path d="M16.8996 2.61863C17.4947 1.98117 18.5053 1.98117 19.1004 2.61863L21.4228 5.1062C21.7767 5.48519 22.3006 5.65544 22.8096 5.5568L26.1507 4.90939C27.0068 4.74348 27.8244 5.33748 27.9312 6.20301L28.3479 9.58056C28.4114 10.0952 28.7352 10.5409 29.205 10.7603L32.2885 12.2003C33.0786 12.5693 33.3909 13.5304 32.9686 14.2934L31.3204 17.2708C31.0693 17.7245 31.0693 18.2754 31.3204 18.729L32.9686 21.7065C33.3909 22.4695 33.0786 23.4306 32.2885 23.7996L29.205 25.2396C28.7352 25.459 28.4114 25.9047 28.3479 26.4193L27.9312 29.7969C27.8244 30.6624 27.0068 31.2564 26.1507 31.0905L22.8096 30.4431C22.3006 30.3444 21.7767 30.5147 21.4228 30.8937L19.1004 33.3813C18.5053 34.0187 17.4947 34.0187 16.8996 33.3813L14.5772 30.8937C14.2234 30.5147 13.6994 30.3444 13.1904 30.4431L9.84936 31.0905C8.99319 31.2564 8.17562 30.6624 8.06883 29.7969L7.65213 26.4193C7.58864 25.9047 7.26482 25.459 6.79503 25.2396L3.71156 23.7996C2.92138 23.4306 2.6091 22.4695 3.03146 21.7065L4.67961 18.729C4.93072 18.2754 4.93072 17.7245 4.67961 17.2708L3.03146 14.2934C2.6091 13.5304 2.92138 12.5693 3.71155 12.2003L6.79503 10.7603C7.26482 10.5409 7.58864 10.0952 7.65213 9.58056L8.06883 6.20301C8.17562 5.33748 8.99319 4.74348 9.84936 4.90939L13.1904 5.5568C13.6994 5.65544 14.2234 5.48519 14.5772 5.1062L16.8996 2.61863Z" fill="#FF2323"/>
</svg>
