<svg width="32" height="32" viewBox="0 0 32 32" fill="none" xmlns="http://www.w3.org/2000/svg">
<path d="M11.6646 21.7764L7.3323 21.7764C4.93964 21.7764 3 19.8368 3 17.4441L3 14.5559C3 12.1633 4.93964 10.2236 7.3323 10.2236L11.6646 10.2236V21.7764Z" fill="#0088FF"/>
<path d="M11.6648 10.2236L20.6005 6.25218C22.5104 5.40332 24.6617 6.80138 24.6617 8.89145V23.1085C24.6617 25.1986 22.5104 26.5967 20.6005 25.7478L11.6648 21.7764V10.2236Z" fill="#B2DBFF"/>
<path d="M24.662 11.6677H26.1061C27.7012 11.6677 28.9943 12.9608 28.9943 14.5559V17.4441C28.9943 19.0392 27.7012 20.3323 26.1061 20.3323H24.662V11.6677Z" fill="#0088FF"/>
</svg>
