<svg width="32" height="32" viewBox="0 0 32 32" fill="none" xmlns="http://www.w3.org/2000/svg">
<path d="M17.3365 4.60132H21.3464C22.0554 4.60132 22.7353 4.88486 23.2366 5.38958C23.738 5.8943 24.0196 6.57884 24.0196 7.29261V26.1317" fill="#FFCEBD"/>
<path d="M2.63361 26.1317H6.64349H2.63361Z" fill="#FFCEBD"/>
<path d="M17.3365 26.1317H29.3661H17.3365Z" fill="#FFCEBD"/>
<path d="M17.3365 4.60132H21.3464C22.0554 4.60132 22.7353 4.88486 23.2366 5.38958C23.738 5.8943 24.0196 6.57884 24.0196 7.29261V26.1317H17.3365V5.35759V4.60132Z" fill="#FFCEBD"/>
<path d="M17.3365 4.60132H21.3464C22.0554 4.60132 22.7353 4.88486 23.2366 5.38958C23.738 5.8943 24.0196 6.57884 24.0196 7.29261V26.1317H17.3365M17.3365 4.60132V26.1317M17.3365 4.60132V5.35759V26.1317M2.63361 26.1317H6.64349M17.3365 26.1317H29.3661" stroke="#FFCEBD" stroke-width="0.954733" stroke-linecap="round" stroke-linejoin="round"/>
<path d="M13.3271 15.3663V15.3798V15.3663Z" fill="#FF5B23"/>
<path d="M17.3369 5.35739V27.099C17.3369 27.3034 17.2906 27.5051 17.2015 27.6888C17.1125 27.8725 16.983 28.0334 16.823 28.1592C16.663 28.285 16.4766 28.3724 16.278 28.4149C16.0794 28.4574 15.8738 28.4538 15.6769 28.4043L6.64394 26.1315V6.70304C6.64403 6.10289 6.84337 5.51999 7.21027 5.04699C7.57718 4.57399 8.09059 4.23802 8.66892 4.09248L14.0154 2.74684C14.4094 2.64769 14.8206 2.64022 15.2179 2.72497C15.6152 2.80973 15.988 2.98449 16.3082 3.236C16.6284 3.4875 16.8874 3.80913 17.0656 4.17647C17.2439 4.54381 17.3367 4.94856 17.3369 5.35739Z" fill="#FF5B23"/>
<path d="M13.3271 15.3665V15.3816" stroke="#FFCEBD" stroke-width="2.66667" stroke-linecap="round" stroke-linejoin="round"/>
</svg>
