<svg width="107" height="45" viewBox="0 0 107 45" fill="none" xmlns="http://www.w3.org/2000/svg">
<g filter="url(#filter0_d_454_20210)">
<rect x="3" width="92" height="39" rx="5.61702" fill="#E80000"/>
<path d="M21.748 12.4648C24.1211 12.4648 25.8438 13.7832 25.8438 15.7344C25.8438 17.668 24.1211 19.0039 21.748 18.9863C19.375 19.0039 17.6875 17.668 17.6875 15.7344C17.6875 13.7832 19.375 12.4648 21.748 12.4648ZM21.748 13.8184C20.3242 13.8184 19.2871 14.5742 19.3047 15.7344C19.2871 16.877 20.3242 17.6328 21.748 17.6152C23.207 17.6328 24.2441 16.877 24.2441 15.7344C24.2441 14.5742 23.207 13.8184 21.748 13.8184ZM29.6758 11.7617V27.4941H28.0234V11.7617H29.6758ZM16.5625 20.2168C19.4629 20.2168 23.4883 20.1465 26.9336 19.6367L27.0566 20.8848C25.624 21.1572 24.1299 21.3242 22.6797 21.4297V27.002H21.0098V21.5176C19.4805 21.5879 18.0391 21.5967 16.791 21.6055L16.5625 20.2168ZM45.0176 11.7441V21.2891H43.3477V17.8613H40.8867V16.4727H43.3477V11.7441H45.0176ZM45.0176 22.0625V27.3008H34.6289V22.0625H45.0176ZM36.2812 23.3809V25.9473H43.3828V23.3809H36.2812ZM41.1328 13.3086V14.6445H31.9043V13.3086H35.7012V11.6035H37.3535V13.3086H41.1328ZM36.5273 15.3652C38.6895 15.3652 40.2188 16.5254 40.2188 18.1777C40.2188 19.8828 38.6895 20.9902 36.5273 21.0078C34.3652 20.9902 32.8184 19.8828 32.8184 18.1777C32.8184 16.5254 34.3652 15.3652 36.5273 15.3652ZM36.5273 16.6484C35.2617 16.6309 34.418 17.2461 34.418 18.1777C34.418 19.1445 35.2617 19.7422 36.5273 19.7422C37.7754 19.7422 38.6191 19.1445 38.6191 18.1777C38.6191 17.2461 37.7754 16.6309 36.5273 16.6484ZM64.3984 11.7617V23.293H62.7285V11.7617H64.3984ZM64.873 25.8066V27.1602H54.0977V22.2031H55.7852V25.8066H64.873ZM57.0684 14.1875C57.0508 16.4902 58.5273 18.5996 60.9531 19.4434L60.0918 20.7793C58.2725 20.1025 56.9277 18.7666 56.2246 17.0527C55.5303 18.8809 54.168 20.3486 52.3223 21.0605L51.4258 19.7422C53.9043 18.8281 55.3633 16.5605 55.3633 14.1875V12.623H57.0684V14.1875ZM80.2852 13.959V15.3125H67.3301V13.959H72.9902V11.9727H74.6426V13.959H80.2852ZM81.0586 24.3652V25.7188H66.6445V24.3652H72.9902V22.2734C70.2305 22.1064 68.5605 21.0166 68.5605 19.2676C68.5605 17.3691 70.5645 16.2617 73.8164 16.2617C77.0332 16.2617 79.0547 17.3691 79.0547 19.2676C79.0547 21.0166 77.376 22.1064 74.6426 22.2734V24.3652H81.0586ZM73.8164 17.5801C71.5664 17.5801 70.248 18.1777 70.2656 19.2676C70.248 20.3574 71.5664 20.9551 73.8164 20.9727C76.0312 20.9551 77.3496 20.3574 77.3496 19.2676C77.3496 18.1777 76.0312 17.5801 73.8164 17.5801Z" fill="white"/>
<path d="M104.192 19.5L95 24.8617L95 14.1383L104.192 19.5Z" fill="#E80000"/>
</g>
<defs>
<filter id="filter0_d_454_20210" x="0.473684" y="0" width="106.244" height="44.0526" filterUnits="userSpaceOnUse" color-interpolation-filters="sRGB">
<feFlood flood-opacity="0" result="BackgroundImageFix"/>
<feColorMatrix in="SourceAlpha" type="matrix" values="0 0 0 0 0 0 0 0 0 0 0 0 0 0 0 0 0 0 127 0" result="hardAlpha"/>
<feOffset dy="2.52632"/>
<feGaussianBlur stdDeviation="1.26316"/>
<feComposite in2="hardAlpha" operator="out"/>
<feColorMatrix type="matrix" values="0 0 0 0 0 0 0 0 0 0 0 0 0 0 0 0 0 0 0.25 0"/>
<feBlend mode="normal" in2="BackgroundImageFix" result="effect1_dropShadow_454_20210"/>
<feBlend mode="normal" in="SourceGraphic" in2="effect1_dropShadow_454_20210" result="shape"/>
</filter>
</defs>
</svg>
