<svg width="32" height="32" viewBox="0 0 32 32" fill="none" xmlns="http://www.w3.org/2000/svg">
<path fill-rule="evenodd" clip-rule="evenodd" d="M14.1429 4C13.4166 4 12.8116 4.53156 12.7513 5.22262C12.5497 7.53178 10.1294 8.95129 8.01564 8.00002L7.84898 7.92502C7.19202 7.62936 6.40737 7.86388 6.04423 8.46443L4.18712 11.5357C3.82398 12.1362 4.00359 12.9023 4.60024 13.2977C6.53499 14.5799 6.53499 17.4203 4.60024 18.7025C4.00359 19.0979 3.82398 19.864 4.18712 20.4645L6.04423 23.5358C6.40737 24.1363 7.19202 24.3708 7.84899 24.0752L8.01561 24.0002C10.1294 23.0489 12.5497 24.4684 12.7513 26.7776C12.8116 27.4687 13.4166 28.0002 14.1429 28.0002H17.8571C18.5834 28.0002 19.1884 27.4687 19.2487 26.7776C19.4503 24.4684 21.8706 23.0489 23.9844 24.0002L24.151 24.0752C24.808 24.3708 25.5926 24.1363 25.9558 23.5358L27.8129 20.4645C28.176 19.864 27.9964 19.0979 27.3998 18.7025C25.465 17.4203 25.465 14.5799 27.3998 13.2977C27.9964 12.9023 28.176 12.1362 27.8129 11.5357L25.9558 8.46443C25.5926 7.86388 24.808 7.62936 24.151 7.92502L23.9844 8.00002C21.8706 8.95128 19.4503 7.53178 19.2487 5.22262C19.1884 4.53155 18.5834 4 17.8571 4H14.1429ZM16 20.0001C18.2092 20.0001 20 18.2093 20 16.0001C20 13.7909 18.2092 12.0001 16 12.0001C13.7908 12.0001 12 13.7909 12 16.0001C12 18.2093 13.7908 20.0001 16 20.0001Z" fill="#FFCEBD"/>
<path fill-rule="evenodd" clip-rule="evenodd" d="M16 20.1481C18.291 20.1481 20.1481 18.2909 20.1481 16C20.1481 13.709 18.291 11.8518 16 11.8518C13.709 11.8518 11.8519 13.709 11.8519 16C11.8519 18.2909 13.709 20.1481 16 20.1481Z" fill="#FF5B23"/>
</svg>
