<svg width="44" height="44" viewBox="0 0 44 44" fill="none" xmlns="http://www.w3.org/2000/svg">
<rect width="44" height="44" rx="22" fill="#FF5B23"/>
<g clip-path="url(#clip0_606_18513)">
<path fill-rule="evenodd" clip-rule="evenodd" d="M22.6461 14.2922C23.5891 13.3814 24.8521 12.8775 26.1631 12.8889C27.4741 12.9003 28.7282 13.4261 29.6552 14.3531C30.5823 15.2802 31.1081 16.5342 31.1195 17.8452C31.1309 19.1562 30.6269 20.4192 29.7161 21.3622L29.706 21.3726L27.2061 23.8725C26.6992 24.3795 26.0892 24.7717 25.4174 25.0222C24.7457 25.2728 24.0279 25.376 23.3127 25.3248C22.5976 25.2736 21.9018 25.0692 21.2726 24.7254C20.6434 24.3816 20.0955 23.9066 19.6661 23.3325C19.3904 22.9639 19.4657 22.4417 19.8342 22.166C20.2028 21.8903 20.725 21.9656 21.0007 22.3342C21.287 22.7169 21.6523 23.0336 22.0717 23.2628C22.4912 23.492 22.955 23.6282 23.4318 23.6624C23.9085 23.6965 24.3871 23.6277 24.8349 23.4607C25.2828 23.2936 25.6894 23.0322 26.0274 22.6942L26.0275 22.694L28.5221 20.1995C29.1263 19.5713 29.4605 18.7314 29.4529 17.8597C29.4453 16.9857 29.0947 16.1497 28.4767 15.5316C27.8587 14.9136 27.0226 14.5631 26.1486 14.5555C25.2766 14.5479 24.4363 14.8824 23.8081 15.4871L22.3793 16.9076C22.0529 17.2321 21.5252 17.2306 21.2007 16.9042C20.8763 16.5778 20.8778 16.0502 21.2042 15.7257L22.6375 14.3007L22.6461 14.2922Z" fill="white"/>
<path fill-rule="evenodd" clip-rule="evenodd" d="M18.5831 18.9774C19.2549 18.7269 19.9727 18.6237 20.6878 18.6749C21.403 18.7261 22.0987 18.9305 22.7279 19.2743C23.3571 19.618 23.905 20.0931 24.3345 20.6672C24.6101 21.0358 24.5348 21.558 24.1663 21.8337C23.7978 22.1093 23.2755 22.0341 22.9999 21.6655C22.7136 21.2828 22.3483 20.9661 21.9288 20.7369C21.5094 20.5077 21.0455 20.3714 20.5688 20.3373C20.092 20.3031 19.6135 20.3719 19.1656 20.539C18.7178 20.7061 18.3111 20.9675 17.9732 21.3055L15.4785 23.8002C14.8743 24.4284 14.5401 25.2683 14.5477 26.14C14.5552 27.014 14.9058 27.85 15.5238 28.468C16.1419 29.086 16.9779 29.4366 17.8519 29.4442C18.7236 29.4518 19.5635 29.1176 20.1916 28.5134L21.6112 27.0938C21.9367 26.7683 22.4643 26.7683 22.7897 27.0938C23.1152 27.4192 23.1152 27.9468 22.7897 28.2723L21.3647 29.6973L21.3544 29.7074C20.4114 30.6182 19.1484 31.1222 17.8374 31.1108C16.5264 31.0994 15.2724 30.5736 14.3453 29.6465C13.4183 28.7195 12.8924 27.4654 12.881 26.1544C12.8697 24.8435 13.3736 23.5805 14.2844 22.6374L14.2946 22.6271L16.7945 20.1272C16.7944 20.1273 16.7945 20.1272 16.7945 20.1272C17.3013 19.6202 17.9114 19.228 18.5831 18.9774Z" fill="white"/>
</g>
<defs>
<clipPath id="clip0_606_18513">
<rect width="20" height="20" fill="white" transform="translate(12 12)"/>
</clipPath>
</defs>
</svg>
