<svg width="25" height="13" viewBox="0 0 25 13" fill="none" xmlns="http://www.w3.org/2000/svg">
<g style="mix-blend-mode:plus-darker">
<path d="M4.67188 12H3.25V2.15625H3.1875L0.4375 3.98438V2.5625L3.25 0.6875H4.67188V12ZM7.42188 10.9688L11.2812 6.90625C11.7917 6.36458 12.1823 5.92969 12.4531 5.60156C12.724 5.27344 12.9271 4.95312 13.0625 4.64062C13.1979 4.32812 13.2656 4.00521 13.2656 3.67188C13.2656 3.29688 13.1667 2.96354 12.9688 2.67188C12.7708 2.38021 12.5026 2.15365 12.1641 1.99219C11.8255 1.83073 11.4427 1.75 11.0156 1.75C10.5781 1.75 10.1927 1.83854 9.85938 2.01562C9.52604 2.19271 9.26823 2.44271 9.08594 2.76562C8.90365 3.08854 8.8125 3.45833 8.8125 3.875H7.48438C7.48438 3.21875 7.63802 2.63802 7.94531 2.13281C8.2526 1.6276 8.67969 1.23438 9.22656 0.953125C9.77344 0.671875 10.3854 0.53125 11.0625 0.53125C11.7396 0.53125 12.3438 0.669271 12.875 0.945312C13.4062 1.22135 13.8229 1.59896 14.125 2.07812C14.4271 2.55729 14.5781 3.08854 14.5781 3.67188C14.5781 4.09896 14.5 4.51042 14.3438 4.90625C14.1875 5.30208 13.9271 5.73698 13.5625 6.21094C13.1979 6.6849 12.6719 7.27604 11.9844 7.98438L9.39062 10.6562V10.75H14.7812V12H7.4375L7.42188 10.9688ZM20.4844 12.1562C19.7448 12.1562 19.0807 12.0312 18.4922 11.7812C17.9036 11.5312 17.4401 11.1797 17.1016 10.7266C16.763 10.2734 16.5781 9.75 16.5469 9.15625H17.9688C18 9.5 18.1276 9.80469 18.3516 10.0703C18.5755 10.3359 18.8724 10.5417 19.2422 10.6875C19.612 10.8333 20.0208 10.9062 20.4688 10.9062C20.9583 10.9062 21.401 10.8203 21.7969 10.6484C22.1927 10.4766 22.5 10.2422 22.7188 9.94531C22.9375 9.64844 23.0469 9.30729 23.0469 8.92188C23.0469 8.50521 22.9401 8.13802 22.7266 7.82031C22.513 7.5026 22.2005 7.25521 21.7891 7.07812C21.3776 6.90104 20.8802 6.8125 20.2969 6.8125H19.375V5.57812H20.2969C20.7552 5.57812 21.1615 5.4974 21.5156 5.33594C21.8698 5.17448 22.1432 4.94792 22.3359 4.65625C22.5286 4.36458 22.625 4.02604 22.625 3.64062C22.625 3.26562 22.5391 2.9349 22.3672 2.64844C22.1953 2.36198 21.9505 2.14062 21.6328 1.98438C21.3151 1.82812 20.9427 1.75 20.5156 1.75C20.1094 1.75 19.7292 1.82292 19.375 1.96875C19.0208 2.11458 18.7318 2.32031 18.5078 2.58594C18.2839 2.85156 18.1615 3.16667 18.1406 3.53125H16.7812C16.8125 2.94792 16.9974 2.42708 17.3359 1.96875C17.6745 1.51042 18.125 1.15625 18.6875 0.90625C19.25 0.65625 19.8646 0.53125 20.5312 0.53125C21.2292 0.53125 21.8411 0.666667 22.3672 0.9375C22.8932 1.20833 23.2969 1.57552 23.5781 2.03906C23.8594 2.5026 23.9948 3.01042 23.9844 3.5625C23.9948 3.97917 23.9219 4.36198 23.7656 4.71094C23.6094 5.0599 23.3854 5.35417 23.0938 5.59375C22.8021 5.83333 22.4583 6.01042 22.0625 6.125V6.20312C22.5521 6.27604 22.974 6.4375 23.3281 6.6875C23.6823 6.9375 23.9557 7.2526 24.1484 7.63281C24.3411 8.01302 24.4323 8.44271 24.4219 8.92188C24.4323 9.52604 24.2656 10.0755 23.9219 10.5703C23.5781 11.0651 23.1042 11.4531 22.5 11.7344C21.8958 12.0156 21.224 12.1562 20.4844 12.1562Z" fill="#686868"/>
</g>
</svg>
