<svg width="402" height="320" viewBox="0 0 402 320" fill="none" xmlns="http://www.w3.org/2000/svg">
<path d="M366.736 19.8185C367.149 19.3758 367.851 19.3758 368.264 19.8185L369.877 21.546C370.123 21.8092 370.487 21.9274 370.84 21.8589L373.16 21.4093C373.755 21.2941 374.322 21.7066 374.397 22.3077L374.686 24.6532C374.73 25.0106 374.955 25.3201 375.281 25.4724L377.423 26.4725C377.971 26.7287 378.188 27.3962 377.895 27.926L376.75 29.9937C376.576 30.3087 376.576 30.6913 376.75 31.0063L377.895 33.074C378.188 33.6038 377.971 34.2713 377.423 34.5275L375.281 35.5276C374.955 35.6799 374.73 35.9894 374.686 36.3468L374.397 38.6923C374.322 39.2934 373.755 39.7059 373.16 39.5907L370.84 39.1411C370.487 39.0726 370.123 39.1908 369.877 39.454L368.264 41.1815C367.851 41.6242 367.149 41.6241 366.736 41.1815L365.123 39.454C364.877 39.1908 364.513 39.0726 364.16 39.1411L361.84 39.5907C361.245 39.7059 360.678 39.2934 360.603 38.6923L360.314 36.3468C360.27 35.9894 360.045 35.6799 359.719 35.5276L357.577 34.5275C357.029 34.2713 356.812 33.6038 357.105 33.074L358.25 31.0063C358.424 30.6913 358.424 30.3087 358.25 29.9937L357.105 27.926C356.812 27.3962 357.029 26.7287 357.577 26.4725L359.719 25.4724C360.045 25.3201 360.27 25.0106 360.314 24.6532L360.603 22.3077C360.678 21.7066 361.245 21.2941 361.84 21.4093L364.16 21.8589C364.513 21.9274 364.877 21.8092 365.123 21.546L366.736 19.8185Z" fill="#FF5B23"/>
</svg>
