<svg width="362" height="52" viewBox="0 0 362 52" fill="none" xmlns="http://www.w3.org/2000/svg">
<rect x="0.5" y="0.5" width="361" height="51" rx="25.5" fill="#F4F2F3"/>
<rect x="0.5" y="0.5" width="361" height="51" rx="25.5" stroke="#121212"/>
<path d="M37.5879 18.2188V19.4844H35.3027V22.209H37.5176V23.4922H25.9688V22.209H28.2012V19.4844H25.8984V18.2188H37.5879ZM24.5801 25.9707V24.6523H38.9414V25.9707H24.5801ZM26.3027 28.4492V27.2012H37.1309V30.8047H27.9551V32.0703H37.5703V33.3359H26.3203V29.627H35.4785V28.4492H26.3027ZM29.8535 22.209H33.6328V19.4844H29.8535V22.209ZM53 17.7441V33.5293H51.3477V25.0566H48.4648V23.668H51.3477V17.7441H53ZM40.4316 20.5215V19.168H47.5332V24.793H42.1367V28.3789C44.6504 28.3613 46.584 28.2822 48.7812 27.8867L48.9219 29.2578C46.5664 29.6709 44.4922 29.7676 41.7148 29.7852H40.4668V23.4395H45.916V20.5215H40.4316ZM63.1914 19.9766C63.1914 22.543 65.9248 24.9688 68.957 25.5137L68.1836 26.9023C65.6611 26.3574 63.3496 24.7051 62.3301 22.4902C61.293 24.6963 58.9814 26.3398 56.459 26.9023L55.7207 25.5137C58.709 24.9512 61.4248 22.543 61.4336 19.9766V18.7812H63.1914V19.9766ZM55.1934 31.4199V30.0312H69.6074V31.4199H55.1934ZM87.6523 18.2188V19.4844H85.3672V22.209H87.582V23.4922H76.0332V22.209H78.2656V19.4844H75.9629V18.2188H87.6523ZM74.6445 25.9707V24.6523H89.0059V25.9707H74.6445ZM76.3672 28.4492V27.2012H87.1953V30.8047H78.0195V32.0703H87.6348V33.3359H76.3848V29.627H85.543V28.4492H76.3672ZM79.918 22.209H83.6973V19.4844H79.918V22.209ZM103.381 17.7617V29.4688H101.799V23.7559H99.8652V29.0469H98.3008V18.043H99.8652V22.3848H101.799V17.7617H103.381ZM90.6191 20.416V19.0801H96.5957V23.7031H92.2715V25.8301C94.2227 25.8213 95.708 25.7246 97.4395 25.3906L97.6152 26.7266C95.6289 27.0957 93.9941 27.1748 91.6914 27.166H90.6543V22.4375H94.9961V20.416H90.6191ZM92.9395 33.1602V28.3789H94.5918V31.8066H103.838V33.1602H92.9395ZM117.893 19.3438C117.884 23.9844 116.346 28.1592 110.562 30.9805L109.666 29.6797C112.496 28.3086 114.245 26.6123 115.229 24.6084L109.982 25.0918L109.754 23.6328L115.766 23.2461C116.021 22.4463 116.17 21.5938 116.231 20.6973H110.545V19.3438H117.893ZM120.811 33.4941V17.7441H122.498V33.4941H120.811ZM139.123 30.1543V31.543H124.709V30.1543H131.055V26.9199H126.361V18.8164H128.031V21.5234H135.766V18.8164H137.418V26.9199H132.707V30.1543H139.123ZM128.031 25.5664H135.766V22.877H128.031V25.5664ZM152.777 25.2148V26.5859H141.809V19.1504H152.637V20.5215H143.461V25.2148H152.777ZM140.016 31.4199V30.0312H154.43V31.4199H140.016ZM164.178 22.5781C164.178 25.0566 165.329 27.5791 167.5 28.748L166.568 29.9785C165.039 29.1699 163.984 27.667 163.413 25.8828C162.851 27.79 161.796 29.4336 160.275 30.3477L159.291 29.082C161.471 27.8164 162.596 25.1182 162.613 22.5781V21.9453H159.766V20.5742H162.613V18.3066H164.178V20.5742H166.973V21.9453H164.178V22.5781ZM165.936 25.2676V23.8789H168.203V18.0781H169.785V32.7031H168.203V25.2676H165.936ZM171.385 33.4941V17.7441H172.984V33.4941H171.385ZM187.904 17.7441V27.2891H186.234V23.8613H183.773V22.4727H186.234V17.7441H187.904ZM174.791 20.6445V19.3086H178.588V17.6035H180.24V19.3086H184.02V20.6445H174.791ZM175.705 24.1777C175.705 22.5254 177.252 21.3652 179.414 21.3652C181.576 21.3652 183.105 22.5254 183.105 24.1777C183.105 25.874 181.576 26.999 179.414 27.0078C177.252 26.999 175.705 25.874 175.705 24.1777ZM177.305 24.1777C177.305 25.1357 178.157 25.7334 179.414 25.7422C180.653 25.7334 181.506 25.1357 181.506 24.1777C181.506 23.2549 180.653 22.6396 179.414 22.6484C178.157 22.6396 177.305 23.2549 177.305 24.1777ZM177.516 33.3008V28.0625H187.904V33.3008H177.516ZM179.168 31.9473H186.27V29.3809H179.168V31.9473ZM202.35 17.7441V24.125H204.881V25.5137H202.35V33.4941H200.697V17.7441H202.35ZM189.992 21.5762V20.2051H193.877V17.9551H195.547V20.2051H199.326V21.5762H189.992ZM190.801 26.3926C190.801 24.248 192.453 22.7363 194.721 22.7363C196.979 22.7363 198.632 24.248 198.641 26.3926C198.632 28.5547 196.979 30.0576 194.721 30.0664C192.453 30.0576 190.801 28.5547 190.801 26.3926ZM192.4 26.3926C192.392 27.7637 193.376 28.6777 194.721 28.6602C196.057 28.6777 197.032 27.7637 197.041 26.3926C197.032 25.0479 196.057 24.1162 194.721 24.1074C193.376 24.1162 192.392 25.0479 192.4 26.3926ZM218.5 17.7441V33.5293H216.848V25.0566H213.965V23.668H216.848V17.7441H218.5ZM205.932 20.5215V19.168H213.033V24.793H207.637V28.3789C210.15 28.3613 212.084 28.2822 214.281 27.8867L214.422 29.2578C212.066 29.6709 209.992 29.7676 207.215 29.7852H205.967V23.4395H211.416V20.5215H205.932ZM237.107 17.7441V24.0195H239.551V25.4082H237.107V33.4766H235.438V17.7441H237.107ZM224.855 29.2754C228.802 27.3066 230.946 24.459 231.289 20.7852H225.646V19.3965H232.994C232.977 23.9492 230.973 28.0186 225.787 30.5762L224.855 29.2754ZM253.24 17.7441V33.4941H251.553V17.7441H253.24ZM240.303 29.2754C244.486 27.2803 246.534 24.4414 246.859 20.7676H241.059V19.4316H248.547C248.547 24.0459 246.587 28.0361 241.182 30.6289L240.303 29.2754Z" fill="#121212"/>
<rect x="318" y="8" width="36" height="36" rx="18" fill="#121212"/>
<path d="M338 20L344 26M344 26L338 32M344 26L328 26" stroke="white" stroke-width="1.5" stroke-linecap="round"/>
</svg>
