<svg width="27" height="12" viewBox="0 0 27 12" fill="none" xmlns="http://www.w3.org/2000/svg">
<g style="mix-blend-mode:plus-darker">
<path d="M0.0400391 11L3.66309 1.10156H4.96191L8.58496 11H7.28613L4.34668 2.70117H4.26465L1.3252 11H0.0400391ZM6.84863 7.13086V8.21094H1.77637V7.13086H6.84863ZM9.9248 1.10156H13.3975C14.0719 1.10156 14.637 1.21549 15.0928 1.44336C15.5485 1.67122 15.888 1.9834 16.1113 2.37988C16.3346 2.77637 16.4463 3.22526 16.4463 3.72656C16.4463 4.1276 16.3757 4.4694 16.2344 4.75195C16.0931 5.03451 15.9017 5.26009 15.6602 5.42871C15.4186 5.59733 15.1429 5.72266 14.833 5.80469V5.90039C15.152 5.91862 15.4665 6.02799 15.7764 6.22852C16.0863 6.42904 16.3415 6.71159 16.542 7.07617C16.7425 7.44076 16.8428 7.8737 16.8428 8.375C16.8428 8.88542 16.7266 9.33659 16.4941 9.72852C16.2617 10.1204 15.8971 10.4303 15.4004 10.6582C14.9036 10.8861 14.277 11 13.5205 11H9.9248V1.10156ZM13.5068 9.90625C14.0081 9.90625 14.4183 9.83789 14.7373 9.70117C15.0563 9.56445 15.2887 9.38216 15.4346 9.1543C15.5804 8.92643 15.6533 8.66211 15.6533 8.36133C15.6533 8.02409 15.569 7.71191 15.4004 7.4248C15.2318 7.1377 14.988 6.91211 14.6689 6.74805C14.3499 6.58398 13.9854 6.50195 13.5752 6.50195H11.1553V9.90625H13.5068ZM13.3564 5.43555C13.7119 5.43555 14.0355 5.36491 14.3271 5.22363C14.6188 5.08236 14.849 4.88411 15.0176 4.62891C15.1862 4.3737 15.2705 4.07747 15.2705 3.74023C15.2705 3.43945 15.2044 3.17285 15.0723 2.94043C14.9401 2.70801 14.7327 2.52572 14.4502 2.39355C14.1676 2.26139 13.8167 2.19531 13.3975 2.19531H11.1553V5.43555H13.3564ZM25.3467 4.21875C25.2555 3.77214 25.0755 3.3916 24.8066 3.07715C24.5378 2.7627 24.2096 2.52344 23.8223 2.35938C23.4349 2.19531 23.0225 2.11328 22.585 2.11328C21.9834 2.11328 21.4411 2.26595 20.958 2.57129C20.4749 2.87663 20.0944 3.32552 19.8164 3.91797C19.5384 4.51042 19.3994 5.22135 19.3994 6.05078C19.3994 6.88021 19.5384 7.59115 19.8164 8.18359C20.0944 8.77604 20.4749 9.22493 20.958 9.53027C21.4411 9.83561 21.9834 9.98828 22.585 9.98828C23.0225 9.98828 23.4326 9.90625 23.8154 9.74219C24.1982 9.57812 24.5264 9.33887 24.7998 9.02441C25.0732 8.70996 25.2555 8.33398 25.3467 7.89648H26.5771C26.4587 8.55273 26.2126 9.12695 25.8389 9.61914C25.4652 10.1113 24.998 10.4873 24.4375 10.7471C23.877 11.0068 23.2594 11.1367 22.585 11.1367C21.7373 11.1367 20.9831 10.9294 20.3223 10.5146C19.6615 10.0999 19.1442 9.50749 18.7705 8.7373C18.3968 7.96712 18.21 7.07161 18.21 6.05078C18.21 5.02083 18.3968 4.12305 18.7705 3.35742C19.1442 2.5918 19.6615 2.00163 20.3223 1.58691C20.9831 1.1722 21.7373 0.964844 22.585 0.964844C23.2503 0.964844 23.8656 1.09473 24.4307 1.35449C24.9958 1.61426 25.4652 1.98796 25.8389 2.47559C26.2126 2.96322 26.4587 3.54427 26.5771 4.21875H25.3467Z" fill="#686868"/>
</g>
</svg>
