<svg width="21" height="14" viewBox="0 0 21 14" fill="none" xmlns="http://www.w3.org/2000/svg">
<path d="M6.2334 13.7212C6.40039 13.8882 6.59831 13.9717 6.82715 13.9717C7.07454 13.9717 7.27246 13.8944 7.4209 13.7397C7.57552 13.5913 7.65283 13.3965 7.65283 13.1553C7.65283 13.0378 7.63119 12.9326 7.58789 12.8398C7.55078 12.7471 7.49821 12.6636 7.43018 12.5894L4.74902 9.98242L2.99162 8.47404L2.29053 8.44238L2.45752 8.01562L2.99162 8.47404L5.1665 8.57227H17.0137C18.096 8.57227 18.8753 8.32178 19.3516 7.8208C19.834 7.31364 20.0752 6.53434 20.0752 5.48291V0.830322C20.0752 0.371748 19.7034 0 19.2449 0C18.7863 0 18.4146 0.371748 18.4146 0.830322V5.48291C18.4146 5.99007 18.3032 6.35807 18.0806 6.58691C17.8579 6.80957 17.5023 6.9209 17.0137 6.9209H5.1665L2.9915 7.01211L2.45752 7.46826L2.29053 7.0415L2.9915 7.01211L4.74902 5.51074L7.43018 2.90381C7.49821 2.82959 7.55078 2.74609 7.58789 2.65332C7.63119 2.56055 7.65283 2.45231 7.65283 2.32861C7.65283 2.09359 7.57552 1.89876 7.4209 1.74414C7.27246 1.58952 7.07454 1.51221 6.82715 1.51221C6.59831 1.51221 6.40039 1.5988 6.2334 1.77197L0.77832 7.125C0.685547 7.21159 0.614421 7.30745 0.564941 7.4126C0.521647 7.51774 0.5 7.62907 0.5 7.74658C0.5 7.85791 0.521647 7.96615 0.564941 8.07129C0.614421 8.17643 0.685547 8.27539 0.77832 8.36816L6.2334 13.7212Z" fill="white"/>
<path d="M2.45752 8.01562L2.29053 8.44238L2.99162 8.47404L2.45752 8.01562Z" fill="white"/>
<path d="M2.29053 7.0415L2.45752 7.46826L2.9915 7.01211L2.29053 7.0415Z" fill="white"/>
</svg>
