<svg width="37" height="36" viewBox="0 0 37 36" fill="none" xmlns="http://www.w3.org/2000/svg">
<path fill-rule="evenodd" clip-rule="evenodd" d="M16.1669 4C15.3196 4 14.6137 4.62014 14.5433 5.42637C14.3082 8.12038 11.4845 9.77645 9.01849 8.66665L8.82406 8.57915C8.05761 8.23422 7.14219 8.50782 6.71853 9.20846L4.55193 12.7915C4.12827 13.4922 4.33781 14.3859 5.0339 14.8472C7.29108 16.3431 7.29109 19.6569 5.0339 21.1528C4.33781 21.6141 4.12827 22.5078 4.55193 23.2085L6.71853 26.7915C7.1422 27.4922 8.05761 27.7658 8.82406 27.4208L9.01846 27.3333C11.4845 26.2235 14.3082 27.8796 14.5433 30.5736C14.6137 31.3799 15.3196 32 16.1669 32H20.5001C21.3474 32 22.0533 31.3799 22.1237 30.5736C22.3588 27.8796 25.1825 26.2235 27.6485 27.3333L27.8429 27.4208C28.6094 27.7658 29.5248 27.4922 29.9485 26.7915L32.1151 23.2085C32.5387 22.5078 32.3292 21.6141 31.6331 21.1528C29.3759 19.6569 29.3759 16.3431 31.6331 14.8472C32.3292 14.3859 32.5387 13.4922 32.1151 12.7915L29.9485 9.20846C29.5248 8.50782 28.6094 8.23422 27.8429 8.57915L27.6485 8.66664C25.1825 9.77645 22.3588 8.12038 22.1237 5.42637C22.0533 4.62014 21.3474 4 20.5001 4H16.1669ZM18.3335 22.6667C20.9108 22.6667 23.0002 20.5773 23.0002 18C23.0002 15.4227 20.9108 13.3333 18.3335 13.3333C15.7562 13.3333 13.6668 15.4227 13.6668 18C13.6668 20.5773 15.7562 22.6667 18.3335 22.6667Z" fill="#FFCEBD"/>
<path fill-rule="evenodd" clip-rule="evenodd" d="M18.3334 22.6667C20.9107 22.6667 23.0001 20.5774 23.0001 18C23.0001 15.4227 20.9107 13.3334 18.3334 13.3334C15.7561 13.3334 13.6667 15.4227 13.6667 18C13.6667 20.5774 15.7561 22.6667 18.3334 22.6667Z" fill="#FF5B23"/>
</svg>
