<svg width="22" height="23" viewBox="0 0 22 23" fill="none" xmlns="http://www.w3.org/2000/svg">
<path d="M10.2358 0.818533C10.6491 0.375849 11.3509 0.37585 11.7642 0.818533L13.377 2.54601C13.6227 2.8092 13.9865 2.92743 14.34 2.85893L16.6602 2.40934C17.2547 2.29412 17.8225 2.70662 17.8966 3.30769L18.186 5.65321C18.2301 6.01057 18.455 6.32009 18.7812 6.47245L20.9225 7.47246C21.4713 7.72873 21.6881 8.39617 21.3948 8.92603L20.2503 10.9937C20.0759 11.3087 20.0759 11.6913 20.2503 12.0063L21.3948 14.074C21.6881 14.6038 21.4713 15.2713 20.9225 15.5275L18.7812 16.5276C18.455 16.6799 18.2301 16.9894 18.186 17.3468L17.8966 19.6923C17.8225 20.2934 17.2547 20.7059 16.6602 20.5907L14.34 20.1411C13.9865 20.0726 13.6227 20.1908 13.377 20.454L11.7642 22.1815C11.3509 22.6242 10.6491 22.6241 10.2358 22.1815L8.62304 20.454C8.37733 20.1908 8.01346 20.0726 7.65997 20.1411L5.33983 20.5907C4.74527 20.7059 4.17751 20.2934 4.10335 19.6923L3.81398 17.3468C3.76989 16.9894 3.54501 16.6799 3.21877 16.5276L1.07747 15.5275C0.528736 15.2713 0.311872 14.6038 0.605176 14.074L1.74973 12.0063C1.92411 11.6913 1.92411 11.3087 1.74973 10.9937L0.605176 8.92603C0.311872 8.39617 0.528736 7.72873 1.07747 7.47246L3.21877 6.47244C3.54501 6.32009 3.76989 6.01057 3.81398 5.65321L4.10335 3.30769C4.17751 2.70662 4.74527 2.29412 5.33983 2.40934L7.65998 2.85893C8.01346 2.92743 8.37733 2.8092 8.62304 2.54601L10.2358 0.818533Z" fill="#FF5B23"/>
</svg>
