<svg width="349" height="48" viewBox="0 0 349 48" fill="none" xmlns="http://www.w3.org/2000/svg">
<path d="M10.2729 2.40234C10.2514 8.26758 8.4897 13.3809 1.27095 16.9043L0.00337219 15.0566C3.34419 13.4238 5.42818 11.4795 6.62056 9.14844L0.43306 9.70703L0.132278 7.66602L7.37251 7.21484C7.64107 6.3125 7.8022 5.3457 7.88814 4.33594H1.12056V2.40234H10.2729ZM15.9663 0.490234V19.9121H13.56V0.490234H15.9663ZM36.5273 15.6152V17.5703H18.7812V15.6152H26.4297V11.834H20.7363V1.7793H23.1211V4.95898H32.123V1.7793H34.5078V11.834H28.7929V15.6152H36.5273ZM23.1211 9.90039H32.123V6.87109H23.1211V9.90039ZM53.5864 9.59961V11.5117H39.9653V2.1875H53.436V4.12109H42.3286V9.59961H53.5864ZM55.563 15.4648V17.4414H37.8169V15.4648H55.563ZM74.5772 9.29883V11.1035H56.8311V9.29883H74.5772ZM72.4287 12.2637V16.6895H61.2998V18.043H73.0088V19.6973H58.9151V15.1426H70.0655V13.9395H58.8936V12.2637H72.4287ZM72.3858 0.919922V5.30273H61.4502V6.57031H72.7295V8.20312H59.087V3.75586H70.001V2.57422H59.0225V0.919922H72.3858ZM96.8145 4.67969V6.5918H83.4083V0.748047H85.7501V4.67969H96.8145ZM98.8556 7.90234V9.83594H91.1212V11.5332H96.6856V16.3672H85.6427V17.8926H97.3302V19.7402H83.2364V14.6914H94.3224V13.3379H83.2149V11.5332H88.7794V9.83594H81.1095V7.90234H98.8556ZM116.43 0.490234V19.9336H114.046V9.59961H110.715V7.64453H114.046V0.490234H116.43ZM109.598 2.1875V9.29883H103.239V13.3809C106.118 13.3701 108.449 13.2734 111.059 12.8008L111.253 14.7559C108.352 15.2715 105.774 15.3789 102.422 15.3789H100.876V7.36523H107.256V4.12109H100.811V2.1875H109.598ZM126.378 5.15234C126.378 8.76172 128.097 12.3066 131.191 13.6602L129.751 15.5723C127.549 14.498 126.002 12.4355 125.175 9.90039C124.326 12.5752 122.747 14.7988 120.513 15.9375L119.009 14.0039C122.167 12.5215 123.929 8.7832 123.95 5.15234V2.05859H126.378V5.15234ZM135.487 0.490234V19.9336H133.124V8.69727H129.042V6.76367H133.124V0.490234H135.487ZM280.662 9.29883V11.1035H262.916V9.29883H280.662ZM278.514 12.2637V16.6895H267.385V18.043H279.094V19.6973H265V15.1426H276.15V13.9395H264.978V12.2637H278.514ZM278.471 0.919922V5.30273H267.535V6.57031H278.814V8.20312H265.172V3.75586H276.086V2.57422H265.107V0.919922H278.471ZM297.399 1.99414C297.399 2.76758 297.346 3.49805 297.249 4.20703H301.095V0.511719H303.479V14.8633H301.095V10.6738H296.476V8.71875H301.095V6.14062H296.776C295.691 9.27734 293.145 11.5977 288.526 13.1016L287.602 11.2324C290.589 10.2764 292.479 9.01953 293.597 7.47266L287.925 7.94531L287.56 6.05469L294.477 5.77539C294.692 5.19531 294.821 4.57227 294.886 3.92773H288.548V1.99414H297.399ZM303.974 17.5918V19.5254H290.825V13.4453H293.253V17.5918H303.974ZM326.705 0.490234V7.85938H329.691V9.81445H326.705V19.9336H324.32V0.490234H326.705ZM321.377 2.33789V4.27148H314.674V13.1875C317.692 13.1875 320.077 13.0371 322.752 12.5645L323.031 14.584C320.023 15.0996 317.402 15.1855 313.9 15.1855H312.289V2.33789H321.377ZM339.36 0.876953C343.657 0.876953 346.342 2.29492 346.364 4.6582C346.342 6.97852 343.657 8.375 339.36 8.35352C335.106 8.375 332.356 6.97852 332.356 4.6582C332.356 2.29492 335.106 0.876953 339.36 0.876953ZM339.36 2.74609C336.524 2.74609 334.827 3.41211 334.848 4.6582C334.827 5.83984 336.524 6.48438 339.36 6.50586C342.196 6.48438 343.893 5.83984 343.893 4.6582C343.893 3.41211 342.196 2.74609 339.36 2.74609ZM346.085 13.1445V19.6758H332.614V13.1445H346.085ZM334.977 15.0352V17.7422H343.764V15.0352H334.977ZM348.233 9.66406V11.5977H330.53V9.66406H348.233ZM75.3509 28.5117V42.6914H72.9661V35.5801H69.5286V33.6465H72.9661V28.5117H75.3509ZM75.845 45.5918V47.5254H62.6106V41.4453H64.9954V45.5918H75.845ZM66.22 32.3789C66.22 34.7207 67.7884 37.127 70.7962 38.1152L69.5931 40.0273C67.4231 39.2861 65.887 37.8145 65.0384 35.9668C64.179 38.0186 62.5569 39.6406 60.2689 40.4355L59.0442 38.502C62.138 37.4922 63.7923 34.9355 63.7923 32.3574V31.8418H59.7532V29.9082H70.2376V31.8418H66.22V32.3789ZM84.0526 34.4199C84.0526 37.4277 85.2987 40.457 88.0057 41.918L86.6737 43.6797C84.869 42.7236 83.6444 41.0156 82.9569 38.9746C82.2694 41.1768 81.0448 43.0566 79.2186 44.1309L77.8221 42.3262C80.5721 40.7363 81.7967 37.4922 81.7967 34.4199V33.8184H78.4881V31.8848H81.7967V29.1777H84.0526V31.8848H87.2967V33.8184H84.0526V34.4199ZM94.8377 28.4902V47.9121H92.5604V28.4902H94.8377ZM90.8846 28.8555V46.9668H88.6287V37.9219H86.0936V35.9453H88.6287V28.8555H90.8846ZM118.665 28.4902V39.082H116.28V34.9355H112.929V32.959H116.28V28.4902H118.665ZM108.245 39.8984V41.918H116.28V39.8984H118.665V47.6758H105.86V39.8984H108.245ZM108.245 45.7422H116.28V43.7871H108.245V45.7422ZM113.552 29.4785V31.4336H109.534C109.556 33.7646 111.124 36.1709 114.11 37.1699L112.907 39.0176C110.737 38.2656 109.201 36.8047 108.352 34.9785C107.493 37.0088 105.882 38.6416 103.583 39.4258L102.358 37.5352C105.431 36.4932 107.085 33.9795 107.106 31.4336H103.067V29.4785H113.552ZM137.013 29.6074V31.2188C137.013 32.8516 137.013 34.7314 136.583 37.1914H139.183V39.1465H121.437V37.1914H134.156C134.596 34.8496 134.628 33.1094 134.628 31.541H123.628V29.6074H137.013ZM137.572 45.5703V47.5039H123.736V40.9941H126.099V45.5703H137.572ZM149.303 28.791C153.728 28.791 156.285 29.9727 156.307 32.1211C156.285 34.291 153.728 35.4512 149.303 35.4727C144.877 35.4512 142.299 34.291 142.299 32.1211C142.299 29.9727 144.877 28.791 149.303 28.791ZM149.303 30.5527C146.338 30.5527 144.791 31.1113 144.812 32.1211C144.791 33.1953 146.338 33.6895 149.303 33.6895C152.31 33.6895 153.836 33.1953 153.836 32.1211C153.836 31.1113 152.31 30.5527 149.303 30.5527ZM158.176 36.5039V38.416H140.473V36.5039H158.176ZM155.963 39.7266V44.4746H144.92V45.9141H156.5V47.7402H142.578V42.7773H153.621V41.4883H142.557V39.7266H155.963ZM176.224 31.4766V33.3887H164.794V31.4766H169.284V28.7695H171.69V31.4766H176.224ZM170.509 34.6562C173.151 34.6562 175.106 36.5684 175.128 39.2324C175.106 41.8535 173.151 43.7871 170.509 43.7871C167.823 43.7871 165.847 41.8535 165.847 39.2324C165.847 36.5684 167.823 34.6562 170.509 34.6562ZM170.509 36.6758C169.112 36.6758 168.06 37.6855 168.081 39.2324C168.06 40.7793 169.112 41.7676 170.509 41.7461C171.884 41.7676 172.937 40.7793 172.937 39.2324C172.937 37.6855 171.884 36.6758 170.509 36.6758ZM181.036 28.4902V47.9121H178.673V38.2871H175.815V36.332H178.673V28.4902H181.036ZM201.49 37.8359V39.748H183.787V37.8359H187.912V35.3652C186.451 34.7529 185.613 33.7754 185.613 32.5078C185.613 30.1875 188.341 28.8125 192.617 28.8125C196.892 28.8125 199.599 30.1875 199.621 32.5078C199.61 33.7861 198.772 34.7637 197.3 35.3652V37.8359H201.49ZM192.617 40.9297C196.806 40.9082 199.32 42.1543 199.341 44.3887C199.32 46.6445 196.806 47.8691 192.617 47.8691C188.384 47.8691 185.849 46.6445 185.849 44.3887C185.849 42.1543 188.384 40.9082 192.617 40.9297ZM192.617 42.7344C189.781 42.7344 188.255 43.293 188.277 44.3887C188.255 45.4844 189.781 46.0645 192.617 46.0645C195.388 46.0645 196.935 45.4844 196.957 44.3887C196.935 43.293 195.388 42.7344 192.617 42.7344ZM192.617 30.6602C189.738 30.6602 188.084 31.3047 188.105 32.5078C188.084 33.6895 189.738 34.3125 192.617 34.3125C195.474 34.3125 197.15 33.6895 197.15 32.5078C197.15 31.3047 195.474 30.6602 192.617 30.6602ZM190.318 37.8359H194.916V35.9883C194.217 36.085 193.444 36.1387 192.617 36.1387C191.79 36.1387 191.016 36.085 190.318 35.9883V37.8359ZM212.297 31.584V33.4961H202.779V31.584H206.389V29.0488H208.752V31.584H212.297ZM207.57 34.5273C210.041 34.5273 211.803 36.3965 211.803 39.0391C211.803 41.7246 210.041 43.6152 207.57 43.6152C205.121 43.6152 203.316 41.7246 203.338 39.0391C203.316 36.3965 205.121 34.5273 207.57 34.5273ZM207.57 36.5039C206.303 36.5039 205.422 37.5137 205.443 39.0391C205.422 40.6074 206.303 41.5957 207.57 41.5742C208.816 41.5957 209.697 40.6074 209.697 39.0391C209.697 37.5137 208.816 36.5039 207.57 36.5039ZM219.516 28.4902V47.9121H217.238V38.416H215.348V47.0312H213.113V28.8984H215.348V36.4824H217.238V28.4902H219.516ZM244.804 39.3184V41.252H237.091V47.8906H234.728V41.252H227.101V39.3184H244.804ZM243.171 29.5859V31.4766H237.349C237.488 33.6035 240.045 35.6445 243.88 36.1387L243.021 38.0078C239.712 37.5459 237.134 36.0312 235.952 33.9258C234.771 36.0312 232.193 37.5459 228.927 38.0078L228.025 36.1387C231.838 35.6445 234.395 33.6035 234.577 31.4766H228.734V29.5859H243.171ZM252.195 33.582C252.195 36.7188 253.291 39.9844 255.912 41.6387L254.601 43.4648C252.85 42.4121 251.712 40.5967 251.078 38.459C250.369 40.8115 249.123 42.7988 247.297 43.916L245.814 42.1328C248.629 40.4141 249.896 36.998 249.896 33.6895V30.209H252.195V33.582ZM262.894 28.4902V47.9121H260.595V28.4902H262.894ZM258.855 28.834V46.9668H256.599V37.1484H253.828V35.1719H256.599V28.834H258.855ZM282.918 43.5938V45.5488H265.172V43.5938H269.276V38.6738C267.729 37.793 266.794 36.4072 266.805 34.6777C266.783 31.584 269.834 29.543 274.002 29.543C278.192 29.543 281.242 31.584 281.242 34.6777C281.242 36.375 280.34 37.7393 278.836 38.6309V43.5938H282.918ZM274.002 31.4336C271.102 31.4336 269.125 32.6582 269.147 34.6777C269.125 36.6758 271.102 37.9219 274.002 37.9219C276.902 37.9219 278.901 36.6758 278.901 34.6777C278.901 32.6582 276.902 31.4336 274.002 31.4336ZM271.639 43.5938H276.408V39.5332C275.667 39.7051 274.861 39.791 274.002 39.791C273.164 39.791 272.369 39.7051 271.639 39.5547V43.5938ZM286.571 46.1719C285.647 46.1719 284.895 45.4199 284.895 44.4961C284.895 43.5938 285.647 42.8418 286.571 42.8418C287.452 42.8418 288.225 43.5938 288.225 44.4961C288.225 45.4199 287.452 46.1719 286.571 46.1719Z" fill="#121212"/>
<path d="M149.819 1.34961C152.762 1.32812 154.91 3.00391 154.91 5.43164C154.91 7.81641 152.762 9.51367 149.819 9.49219C146.897 9.51367 144.77 7.81641 144.77 5.43164C144.77 3.00391 146.897 1.32812 149.819 1.34961ZM149.819 3.2832C148.229 3.26172 147.069 4.09961 147.09 5.43164C147.069 6.74219 148.229 7.53711 149.819 7.53711C151.473 7.53711 152.633 6.74219 152.633 5.43164C152.633 4.09961 151.473 3.26172 149.819 3.2832ZM159.723 0.511719V19.8906H157.36V0.511719H159.723ZM143.502 10.8242C147.004 10.8242 151.903 10.7598 156.092 10.1367L156.264 11.8984C154.588 12.2207 152.848 12.4248 151.151 12.543V19.3105H148.744V12.6934C146.95 12.7686 145.264 12.7793 143.803 12.8008L143.502 10.8242ZM173.989 3.47656V5.38867H162.559V3.47656H167.05V0.769531H169.456V3.47656H173.989ZM168.274 6.65625C170.917 6.65625 172.872 8.56836 172.893 11.2324C172.872 13.8535 170.917 15.7871 168.274 15.7871C165.589 15.7871 163.612 13.8535 163.612 11.2324C163.612 8.56836 165.589 6.65625 168.274 6.65625ZM168.274 8.67578C166.878 8.67578 165.825 9.68555 165.846 11.2324C165.825 12.7793 166.878 13.7676 168.274 13.7461C169.649 13.7676 170.702 12.7793 170.702 11.2324C170.702 9.68555 169.649 8.67578 168.274 8.67578ZM178.801 0.490234V19.9121H176.438V10.2871H173.581V8.33203H176.438V0.490234H178.801ZM189.781 2.5957V7.64453H192.036V0.833984H194.314V18.9668H192.036V9.57812H189.781V14.9062H182.154V2.5957H189.781ZM184.388 4.48633V13.0156H187.546V4.48633H184.388ZM198.31 0.490234V19.9121H196.011V0.490234H198.31ZM216.358 2.40234C216.336 8.26758 214.575 13.3809 207.356 16.9043L206.088 15.0566C209.429 13.4238 211.513 11.4795 212.705 9.14844L206.518 9.70703L206.217 7.66602L213.457 7.21484C213.726 6.3125 213.887 5.3457 213.973 4.33594H207.205V2.40234H216.358ZM222.051 0.490234V19.9121H219.645V0.490234H222.051ZM242.612 15.6152V17.5703H224.866V15.6152H232.514V11.834H226.821V1.7793H229.206V4.95898H238.208V1.7793H240.593V11.834H234.878V15.6152H242.612ZM229.206 9.90039H238.208V6.87109H229.206V9.90039ZM259.671 9.59961V11.5117H246.05V2.1875H259.521V4.12109H248.413V9.59961H259.671ZM261.648 15.4648V17.4414H243.902V15.4648H261.648Z" fill="#FF5B23"/>
</svg>
