<svg width="162" height="104" viewBox="0 0 162 104" fill="none" xmlns="http://www.w3.org/2000/svg">
<g clip-path="url(#clip0_606_18426)">
<path d="M99.9528 19.908C101.33 18.0774 103.97 17.7965 105.702 19.2962L112.46 25.1484C113.489 26.0401 114.905 26.3391 116.208 25.9399L124.755 23.32C126.945 22.6486 129.246 23.9729 129.765 26.2041L131.793 34.911C132.102 36.2375 133.072 37.3117 134.36 37.7542L142.815 40.6586C144.981 41.4029 146.064 43.8266 145.173 45.9371L141.696 54.1728C141.166 55.4275 141.319 56.8666 142.101 57.9818L147.234 65.3011C148.549 67.1767 148.001 69.7741 146.039 70.9577L138.385 75.5765C137.219 76.2802 136.497 77.5345 136.474 78.8963L136.325 87.8348C136.286 90.1254 134.316 91.9043 132.033 91.709L123.126 90.9466C121.769 90.8305 120.448 91.4209 119.629 92.5092L114.254 99.6528C112.877 101.483 110.237 101.764 108.505 100.265L101.747 94.4123C100.717 93.5207 99.3013 93.2217 97.9991 93.6208L89.4519 96.2408C87.2615 96.9122 84.9608 95.5878 84.4412 93.3566L82.4138 84.6498C82.1049 83.3232 81.1351 82.249 79.8469 81.8065L71.3921 78.9022C69.2255 78.1579 68.1425 75.7341 69.0337 73.6237L72.5112 65.388C73.041 64.1332 72.8879 62.6941 72.1058 61.579L66.9728 54.2597C65.6575 52.384 66.206 49.7867 68.1675 48.603L75.8216 43.9843C76.9878 43.2806 77.7098 42.0263 77.7326 40.6644L77.8821 31.7259C77.9204 29.4353 79.8909 27.6564 82.1734 27.8518L91.0806 28.6141C92.4377 28.7303 93.7591 28.1399 94.578 27.0515L99.9528 19.908Z" fill="#FF5B23"/>
<path d="M82.3038 53.0747L104.367 54.4913" stroke="#121212" stroke-width="3.95468"/>
<path d="M110.278 52.2414L129.433 41.202" stroke="#121212" stroke-width="3.95468"/>
<ellipse cx="95.5315" cy="59.4229" rx="3.55921" ry="3.16375" transform="rotate(-6.07493 95.5315 59.4229)" stroke="#121212" stroke-width="3.95468"/>
<ellipse cx="118.341" cy="56.9954" rx="3.55921" ry="3.16375" transform="rotate(-6.07493 118.341 56.9954)" stroke="#121212" stroke-width="3.95468"/>
<path d="M152.003 46.5989L156.84 46.2877M137.707 13.1541L135.444 15.7285M53.914 52.9105L58.7516 52.5992M102.463 4.31145L102.774 9.14899M66.0156 19.851L69.6558 23.0511" stroke="#FF5B23" stroke-width="6.18836" stroke-linecap="round" stroke-linejoin="round"/>
<path d="M67.4849 63.8763C68.4515 63.2876 69.7145 63.6408 70.2355 64.6455L72.2686 68.5662C72.5783 69.1635 73.1737 69.5594 73.8443 69.614L78.2462 69.9726C79.3742 70.0645 80.1884 71.0926 80.0193 72.2117L79.3596 76.5785C79.2591 77.2438 79.508 77.9141 80.0185 78.3525L83.3689 81.2299C84.2275 81.9673 84.2818 83.2776 83.4873 84.0836L80.3868 87.2287C79.9145 87.7078 79.7219 88.3964 79.8772 89.0511L80.8964 93.3483C81.1576 94.4495 80.4314 95.5415 79.3149 95.7266L74.9579 96.4486C74.294 96.5586 73.7336 97.0025 73.4744 97.6234L71.7731 101.699C71.3371 102.743 70.1077 103.2 69.0957 102.693L65.1464 100.717C64.5447 100.415 63.8304 100.445 63.2557 100.795L59.4838 103.092C58.5172 103.681 57.2542 103.328 56.7332 102.323L54.7001 98.4025C54.3904 97.8051 53.795 97.4092 53.1244 97.3546L48.7225 96.996C47.5945 96.9041 46.7803 95.876 46.9494 94.757L47.6091 90.3901C47.7096 89.7248 47.4606 89.0546 46.9502 88.6162L43.5998 85.7387C42.7412 85.0014 42.6869 83.691 43.4814 82.8851L46.5819 79.74C47.0542 79.2608 47.2468 78.5722 47.0915 77.9175L46.0723 73.6203C45.8111 72.5191 46.5373 71.4271 47.6538 71.2421L52.0108 70.52C52.6746 70.41 53.2351 69.9662 53.4943 69.3452L55.1956 65.2696C55.6316 64.2252 56.861 63.7686 57.873 64.2752L61.8223 66.252C62.424 66.5532 63.1383 66.5236 63.713 66.1736L67.4849 63.8763Z" fill="#E80000"/>
<path d="M53.3232 75.875L63.1918 80.5551" stroke="#121212" stroke-width="1.95369"/>
<path d="M66.3145 80.6024L77.1233 79.0339" stroke="#121212" stroke-width="1.95369"/>
<ellipse cx="58.2343" cy="81.2019" rx="1.75832" ry="1.56295" transform="rotate(15.6238 58.2343 81.2019)" fill="#E80000" stroke="#121212" stroke-width="1.95369"/>
<ellipse cx="69.1447" cy="84.2552" rx="1.75832" ry="1.56295" transform="rotate(15.6238 69.1447 84.2552)" fill="#E80000" stroke="#121212" stroke-width="1.95369"/>
</g>
<defs>
<clipPath id="clip0_606_18426">
<rect width="162" height="104" fill="white"/>
</clipPath>
</defs>
</svg>
