<svg width="402" height="725" viewBox="0 0 402 725" fill="none" xmlns="http://www.w3.org/2000/svg">
<path fill-rule="evenodd" clip-rule="evenodd" d="M25.4219 475.438L-30.124 561.748L105.269 722.285L429.865 582.463L393.413 484.069L126.099 582.463L25.4219 475.438Z" fill="#0088FF"/>
<path d="M25.4219 475.438L126.099 582.463L393.413 484.069L284.057 399.485L25.4219 475.438Z" fill="#0088FF"/>
<path d="M25.4219 475.438L126.099 582.463M25.4219 475.438L284.057 399.485L393.413 484.069M25.4219 475.438L-30.124 561.748L105.269 722.285M126.099 582.463L393.413 484.069M126.099 582.463L105.269 722.285M393.413 484.069L429.865 582.463L105.269 722.285" stroke="#121212" stroke-width="4.03499"/>
<path d="M164.5 499.806L243.558 474.026C249.361 472.134 250.993 464.701 246.516 460.552L236 450.806M164.5 499.806L176.5 475.806M164.5 499.806L215.5 506.306" stroke="white" stroke-width="6" stroke-linecap="round" stroke-linejoin="round"/>
<path fill-rule="evenodd" clip-rule="evenodd" d="M53.8471 200.704L30.2808 203.912L22.3816 251.93L95.8767 288.063L107.723 266.83L50.1488 234.551L53.8471 200.704Z" fill="#0088FF"/>
<path d="M53.8471 200.704L50.1488 234.551L107.723 266.83L106.161 234.833L53.8471 200.704Z" fill="#0088FF"/>
<path d="M53.8471 200.704L50.1488 234.551M53.8471 200.704L106.161 234.833L107.723 266.83M53.8471 200.704L30.2808 203.912L22.3816 251.93M50.1488 234.551L107.723 266.83M50.1488 234.551L22.3816 251.93M107.723 266.83L95.8767 288.063L22.3816 251.93" stroke="#121212" stroke-width="0.934994"/>
<path d="M70.4907 228.873L86.9333 238.919C88.1402 239.657 89.6951 238.825 89.7521 237.412L89.886 234.092M70.4907 228.873L76.525 227.374M70.4907 228.873L77.023 238.836" stroke="white" stroke-width="1.39033" stroke-linecap="round" stroke-linejoin="round"/>
<path fill-rule="evenodd" clip-rule="evenodd" d="M304.198 24.121L301.82 34.2902L320.277 45.0575L346.619 20.5761L339.767 12.3886L317.502 30.9438L304.198 24.121Z" fill="#0088FF"/>
<path d="M304.198 24.121L317.502 30.9438L339.767 12.3886L326.398 8.01319L304.198 24.121Z" fill="#0088FF"/>
<path d="M304.198 24.121L317.502 30.9438M304.198 24.121L326.398 8.01319L339.767 12.3887M304.198 24.121L301.82 34.2902L320.277 45.0575M317.502 30.9438L339.767 12.3887M317.502 30.9438L320.277 45.0575M339.767 12.3887L346.619 20.5761L320.277 45.0575" stroke="#121212" stroke-width="0.410563"/>
<path d="M321.517 22.0394C321.458 22.0898 321.388 22.1116 321.307 22.1049L318.706 21.9105C318.661 21.9068 318.621 21.8966 318.585 21.8801C318.551 21.8622 318.521 21.8388 318.497 21.8098C318.471 21.7791 318.452 21.7453 318.44 21.7084C318.43 21.6701 318.427 21.6294 318.432 21.5864L318.676 18.9893C318.681 18.9074 318.714 18.8412 318.773 18.7908C318.838 18.7363 318.906 18.7129 318.979 18.7205C319.053 18.7268 319.117 18.7606 319.168 18.8218C319.196 18.8541 319.214 18.8871 319.223 18.9208C319.234 18.9532 319.238 18.9865 319.237 19.0209L319.112 20.291L318.946 21.3061L318.808 21.2316L319.531 20.5668L322.62 17.9576C322.748 17.85 322.816 17.7427 322.825 17.6356C322.833 17.5269 322.781 17.4064 322.669 17.2742L321.461 15.8446C321.352 15.7156 321.244 15.6466 321.137 15.6376C321.03 15.6286 320.913 15.6779 320.786 15.7855L319.431 16.9296C319.363 16.9868 319.292 17.0115 319.216 17.0036C319.142 16.9944 319.079 16.96 319.029 16.9003C318.979 16.8406 318.956 16.7728 318.961 16.6968C318.966 16.6208 319.001 16.5549 319.067 16.4991L320.422 15.3549C320.704 15.1165 320.96 15.0078 321.191 15.0287C321.421 15.0466 321.656 15.1967 321.894 15.4789L323.102 16.9085C323.333 17.1826 323.442 17.4389 323.428 17.6774C323.414 17.9129 323.266 18.1498 322.984 18.3882L319.895 20.9973L319.117 21.5969L319.066 21.4488L320.097 21.4569L321.37 21.5462C321.404 21.5505 321.436 21.5607 321.466 21.5768C321.498 21.5914 321.527 21.6141 321.553 21.6447C321.606 21.7076 321.629 21.7754 321.621 21.8482C321.616 21.9212 321.582 21.9849 321.517 22.0394Z" fill="white"/>
<path d="M267.685 296.413C268.88 294.842 271.387 295.728 271.331 297.701L271.03 308.327C270.987 309.869 272.609 310.895 273.983 310.195L283.455 305.368C285.214 304.472 287.088 306.357 286.181 308.11L281.3 317.554C280.592 318.924 281.608 320.552 283.149 320.518L293.778 320.279C295.751 320.235 296.622 322.746 295.044 323.933L286.548 330.323C285.316 331.25 285.525 333.158 286.929 333.796L296.609 338.192C298.406 339.009 298.1 341.649 296.164 342.034L285.737 344.105C284.225 344.406 283.586 346.215 284.574 347.399L291.387 355.56C292.652 357.075 291.231 359.322 289.32 358.828L279.027 356.17C277.534 355.785 276.172 357.138 276.549 358.633L279.147 368.942C279.629 370.856 277.374 372.263 275.867 370.99L267.746 364.129C266.568 363.134 264.754 363.762 264.445 365.273L262.313 375.688C261.917 377.621 259.274 377.911 258.469 376.109L254.129 366.405C253.499 364.997 251.593 364.776 250.659 366.003L244.219 374.462C243.023 376.032 240.517 375.147 240.572 373.174L240.873 362.547C240.917 361.006 239.295 359.98 237.921 360.68L228.448 365.506C226.69 366.402 224.816 364.517 225.722 362.764L230.604 353.32C231.312 351.95 230.296 350.322 228.754 350.357L218.126 350.595C216.153 350.639 215.282 348.128 216.859 346.941L225.355 340.551C226.587 339.624 226.378 337.716 224.974 337.078L215.295 332.682C213.498 331.866 213.803 329.225 215.739 328.841L226.166 326.769C227.679 326.469 228.318 324.659 227.33 323.475L220.517 315.314C219.252 313.799 220.673 311.553 222.584 312.046L232.877 314.704C234.37 315.09 235.731 313.736 235.354 312.241L232.757 301.932C232.274 300.019 234.529 298.611 236.037 299.885L244.158 306.746C245.336 307.741 247.149 307.112 247.458 305.601L249.591 295.186C249.987 293.253 252.629 292.963 253.435 294.765L257.775 304.47C258.404 305.877 260.311 306.098 261.245 304.871L267.685 296.413Z" fill="#DF0000"/>
<path d="M238.678 314.636L255.779 327.954" stroke="#121212" stroke-width="3.87709"/>
<path d="M261.807 329.391L283.422 331.009" stroke="#121212" stroke-width="3.87709"/>
<ellipse cx="245.896" cy="327.071" rx="3.48938" ry="3.10167" transform="rotate(28.1614 245.896 327.071)" fill="#DF0000" stroke="#121212" stroke-width="3.87709"/>
<ellipse cx="265.717" cy="337.686" rx="3.48938" ry="3.10167" transform="rotate(28.1614 265.717 337.686)" fill="#DF0000" stroke="#121212" stroke-width="3.87709"/>
<path d="M276 352.251C279.243 353.578 286.582 358.383 290 366.987" stroke="black" stroke-width="4"/>
<path d="M208 329.718C211.255 328.421 219.873 326.782 228.307 330.601" stroke="black" stroke-width="4"/>
<path d="M147.692 364.501C150.191 361.308 154.872 360.899 157.886 363.611L169.65 374.194C171.443 375.806 173.939 376.383 176.257 375.72L191.471 371.369C195.369 370.254 199.397 372.675 200.242 376.641L203.539 392.118C204.041 394.476 205.721 396.409 207.986 397.236L222.852 402.658C226.661 404.048 228.497 408.374 226.849 412.079L220.419 426.537C219.439 428.74 219.662 431.292 221.009 433.292L229.848 446.417C232.113 449.78 231.056 454.359 227.545 456.388L213.844 464.306C211.757 465.512 210.437 467.708 210.352 470.117L209.788 485.931C209.643 489.983 206.097 493.066 202.064 492.643L186.326 490.996C183.928 490.745 181.57 491.746 180.084 493.645L170.333 506.107C167.834 509.301 163.153 509.71 160.139 506.998L148.374 496.415C146.582 494.802 144.086 494.226 141.768 494.888L126.554 499.239C122.655 500.354 118.628 497.933 117.783 493.967L114.486 478.491C113.984 476.133 112.304 474.199 110.039 473.373L95.1732 467.95C91.3637 466.56 89.5283 462.235 91.176 458.53L97.6058 444.071C98.5854 441.868 98.3625 439.316 97.0158 437.316L88.1766 424.192C85.9115 420.828 86.9692 416.25 90.4801 414.221L104.18 406.303C106.268 405.096 107.587 402.901 107.673 400.491L108.237 384.678C108.381 380.625 111.928 377.543 115.961 377.965L131.699 379.612C134.097 379.863 136.455 378.862 137.941 376.964L147.692 364.501Z" fill="#FF5B23"/>
<path d="M115.348 422.607L154.347 425.852" stroke="#121212" stroke-width="7"/>
<path d="M164.883 422.068L199.152 403.172" stroke="#121212" stroke-width="7"/>
<ellipse cx="138.545" cy="434.284" rx="6.3" ry="5.6" transform="rotate(-4.99199 138.545 434.284)" stroke="#121212" stroke-width="7"/>
<ellipse cx="178.994" cy="430.751" rx="6.3" ry="5.6" transform="rotate(-4.99199 178.994 430.751)" stroke="#121212" stroke-width="7"/>
<path d="M76.0575 481.279C79.1105 473.819 89.7046 457.266 107.657 450.734" stroke="black" stroke-width="7.38109"/>
<path d="M208.376 426.871C216.003 424.263 235.44 421.355 252.168 430.582" stroke="black" stroke-width="7.38109"/>
</svg>
