<svg width="162" height="104" viewBox="0 0 162 104" fill="none" xmlns="http://www.w3.org/2000/svg">
<path d="M54.7808 8.16458C56.3787 6.4531 59.0919 6.4531 60.6897 8.16458L66.925 14.8433C67.875 15.8608 69.2817 16.3179 70.6484 16.0531L79.6184 14.3149C81.9171 13.8695 84.1121 15.4642 84.3988 17.7881L85.5176 26.8562C85.6881 28.2378 86.5575 29.4345 87.8188 30.0235L96.0974 33.8898C98.2189 34.8805 99.0573 37.461 97.9234 39.5095L93.4983 47.5034C92.8242 48.7213 92.8242 50.2004 93.4983 51.4184L97.9234 59.4123C99.0573 61.4608 98.2189 64.0412 96.0974 65.032L87.8188 68.8982C86.5575 69.4873 85.6881 70.6839 85.5176 72.0655L84.3988 81.1337C84.1121 83.4575 81.9171 85.0523 79.6184 84.6069L70.6484 82.8687C69.2817 82.6038 67.875 83.0609 66.925 84.0785L60.6897 90.7572C59.0919 92.4687 56.3787 92.4687 54.7808 90.7572L48.5456 84.0785C47.5956 83.0609 46.1889 82.6038 44.8222 82.8687L35.8521 84.6069C33.5535 85.0523 31.3584 83.4575 31.0717 81.1337L29.953 72.0655C29.7825 70.6839 28.9131 69.4873 27.6518 68.8982L19.3732 65.032C17.2517 64.0412 16.4132 61.4608 17.5472 59.4123L21.9722 51.4184C22.6464 50.2004 22.6464 48.7213 21.9722 47.5034L17.5472 39.5095C16.4132 37.461 17.2517 34.8805 19.3732 33.8898L27.6518 30.0235C28.9131 29.4345 29.7825 28.2378 29.953 26.8562L31.0717 17.7881C31.3584 15.4642 33.5535 13.8695 35.8521 14.3149L44.8222 16.0531C46.1889 16.3179 47.5956 15.8608 48.5456 14.8433L54.7808 8.16458Z" fill="#FF5B23"/>
<path d="M33.2565 39.9634L55.5263 43.7895" stroke="#121212" stroke-width="4.0419"/>
<path d="M61.777 42.1422L82.4387 32.9946" stroke="#121212" stroke-width="4.0419"/>
<ellipse cx="46.0133" cy="47.8459" rx="3.63771" ry="3.23352" stroke="#121212" stroke-width="4.0419"/>
<ellipse cx="69.4581" cy="47.8459" rx="3.63771" ry="3.23352" stroke="#121212" stroke-width="4.0419"/>
<path d="M7.70764 71.7386C9.83861 67.6007 16.7643 58.6112 27.4191 55.7563" stroke="black" stroke-width="4.26195"/>
<path d="M86.554 47.0899C91.0724 45.9733 102.399 45.2771 111.558 51.4249" stroke="black" stroke-width="4.26195"/>
<path d="M127.959 33.5754C129.289 32.7653 131.027 33.2513 131.743 34.6338L134.541 40.0287C134.967 40.8507 135.786 41.3955 136.709 41.4706L142.766 41.964C144.319 42.0905 145.439 43.5052 145.206 45.0451L144.299 51.054C144.16 51.9695 144.503 52.8918 145.205 53.495L149.815 57.4545C150.997 58.4691 151.072 60.2722 149.978 61.3812L145.712 65.709C145.062 66.3684 144.797 67.3158 145.011 68.2167L146.413 74.1298C146.773 75.6451 145.773 77.1478 144.237 77.4024L138.242 78.3959C137.328 78.5473 136.557 79.1581 136.2 80.0125L133.859 85.6207C133.259 87.0578 131.568 87.6862 130.175 86.9891L124.741 84.2689C123.913 83.8544 122.93 83.8952 122.139 84.3768L116.949 87.5379C115.619 88.348 113.881 87.862 113.164 86.4795L110.366 81.0846C109.94 80.2626 109.121 79.7178 108.198 79.6427L102.141 79.1492C100.589 79.0228 99.4683 77.6081 99.7009 76.0682L100.609 70.0593C100.747 69.1438 100.404 68.2215 99.702 67.6183L95.0917 63.6588C93.9103 62.6442 93.8355 60.8411 94.9288 59.7321L99.1951 55.4043C99.8452 54.7449 100.11 53.7975 99.8964 52.8966L98.494 46.9835C98.1346 45.4682 99.1338 43.9655 100.67 43.7109L106.666 42.7173C107.579 42.566 108.35 41.9552 108.707 41.1008L111.048 35.4926C111.648 34.0555 113.34 33.4271 114.732 34.1242L120.167 36.8444C120.994 37.2588 121.977 37.2181 122.768 36.7364L127.959 33.5754Z" fill="#E80000"/>
<path d="M108.471 50.0856L122.05 56.5256" stroke="#121212" stroke-width="2.68834"/>
<path d="M126.349 56.5908L141.223 54.4325" stroke="#121212" stroke-width="2.68834"/>
<ellipse cx="115.229" cy="57.4158" rx="2.41951" ry="2.15067" transform="rotate(15.6238 115.229 57.4158)" fill="#E80000" stroke="#121212" stroke-width="2.68834"/>
<ellipse cx="130.243" cy="61.6174" rx="2.41951" ry="2.15067" transform="rotate(15.6238 130.243 61.6174)" fill="#E80000" stroke="#121212" stroke-width="2.68834"/>
<path d="M82.2886 57.7926C85.9273 56.8935 95.0485 56.3328 102.424 61.2836" stroke="black" stroke-width="3.72059"/>
<path d="M140.577 71.4462C143.761 71.5279 151.363 73.1204 156.294 78.8372" stroke="black" stroke-width="3.72059"/>
</svg>
