<svg width="402" height="726" viewBox="0 0 402 726" fill="none" xmlns="http://www.w3.org/2000/svg">
<path fill-rule="evenodd" clip-rule="evenodd" d="M25.4219 475.953L-30.124 562.263L105.269 722.8L429.865 582.977L393.413 484.584L126.099 582.977L25.4219 475.953Z" fill="#0088FF"/>
<path d="M25.4219 475.953L126.099 582.977L393.413 484.584L284.057 400L25.4219 475.953Z" fill="#0088FF"/>
<path d="M25.4219 475.953L126.099 582.977M25.4219 475.953L284.057 400L393.413 484.584M25.4219 475.953L-30.124 562.263L105.269 722.8M126.099 582.977L393.413 484.584M126.099 582.977L105.269 722.8M393.413 484.584L429.865 582.977L105.269 722.8" stroke="#121212" stroke-width="4.03499"/>
<path d="M164.5 500.32L243.558 474.54C249.361 472.648 250.993 465.216 246.516 461.067L236 451.32M164.5 500.32L176.5 476.32M164.5 500.32L215.5 506.82" stroke="white" stroke-width="6" stroke-linecap="round" stroke-linejoin="round"/>
<path fill-rule="evenodd" clip-rule="evenodd" d="M53.8471 201.219L30.2808 204.426L22.3816 252.444L95.8767 288.578L107.723 267.345L50.1489 235.065L53.8471 201.219Z" fill="#0088FF"/>
<path d="M53.8471 201.219L50.1489 235.065L107.723 267.345L106.161 235.347L53.8471 201.219Z" fill="#0088FF"/>
<path d="M53.8471 201.219L50.1489 235.065M53.8471 201.219L106.161 235.347L107.723 267.345M53.8471 201.219L30.2808 204.426L22.3816 252.444M50.1489 235.065L107.723 267.345M50.1489 235.065L22.3816 252.444M107.723 267.345L95.8767 288.578L22.3816 252.444" stroke="#121212" stroke-width="0.934994"/>
<path d="M70.4907 229.388L86.9334 239.434C88.1402 240.171 89.6951 239.34 89.7521 237.927L89.8861 234.607M70.4907 229.388L76.5251 227.889M70.4907 229.388L77.023 239.35" stroke="white" stroke-width="1.39033" stroke-linecap="round" stroke-linejoin="round"/>
<path fill-rule="evenodd" clip-rule="evenodd" d="M304.198 24.6358L301.82 34.8049L320.277 45.5722L346.619 21.0908L339.767 12.9034L317.502 31.4585L304.198 24.6358Z" fill="#0088FF"/>
<path d="M304.198 24.6358L317.502 31.4585L339.767 12.9034L326.398 8.52793L304.198 24.6358Z" fill="#0088FF"/>
<path d="M304.198 24.6358L317.502 31.4585M304.198 24.6358L326.398 8.52793L339.767 12.9034M304.198 24.6358L301.82 34.8049L320.277 45.5722M317.502 31.4585L339.767 12.9034M317.502 31.4585L320.277 45.5722M339.767 12.9034L346.619 21.0908L320.277 45.5722" stroke="#121212" stroke-width="0.410563"/>
<path d="M321.517 22.5541C321.458 22.6045 321.388 22.6263 321.307 22.6195L318.706 22.4252C318.661 22.4215 318.621 22.4113 318.585 22.3948C318.551 22.3769 318.521 22.3535 318.497 22.3245C318.471 22.2938 318.452 22.26 318.44 22.2231C318.43 22.1848 318.427 22.1441 318.432 22.1011L318.676 19.504C318.681 19.4221 318.714 19.3559 318.773 19.3055C318.838 19.251 318.906 19.2276 318.979 19.2352C319.054 19.2415 319.117 19.2753 319.168 19.3365C319.196 19.3688 319.214 19.4018 319.223 19.4355C319.234 19.4679 319.238 19.5012 319.237 19.5355L319.112 20.8057L318.946 21.8208L318.808 21.7463L319.531 21.0815L322.62 18.4723C322.748 18.3647 322.816 18.2574 322.825 18.1503C322.833 18.0416 322.781 17.9211 322.669 17.7889L321.461 16.3593C321.352 16.2303 321.244 16.1613 321.137 16.1523C321.03 16.1432 320.913 16.1925 320.786 16.3001L319.431 17.4443C319.363 17.5015 319.292 17.5262 319.216 17.5183C319.142 17.5091 319.079 17.4746 319.029 17.415C318.979 17.3553 318.956 17.2875 318.961 17.2115C318.966 17.1355 319.001 17.0696 319.067 17.0138L320.422 15.8696C320.704 15.6312 320.96 15.5225 321.191 15.5434C321.422 15.5613 321.656 15.7114 321.894 15.9936L323.102 17.4231C323.333 17.6973 323.442 17.9536 323.428 18.1921C323.414 18.4276 323.266 18.6645 322.984 18.9029L319.895 21.512L319.117 22.1115L319.066 21.9635L320.097 21.9716L321.37 22.0609C321.404 22.0652 321.436 22.0754 321.466 22.0914C321.498 22.1061 321.527 22.1287 321.553 22.1594C321.606 22.2223 321.629 22.2901 321.621 22.3629C321.616 22.4359 321.582 22.4996 321.517 22.5541Z" fill="white"/>
<path d="M265.529 299.111C267.464 298.137 269.82 299.005 270.659 301.003L273.935 308.798C274.434 309.985 275.509 310.833 276.78 311.04L285.125 312.403C287.264 312.752 288.659 314.839 288.164 316.949L286.232 325.18C285.938 326.434 286.309 327.752 287.216 328.667L293.166 334.674C294.691 336.214 294.593 338.722 292.952 340.138L286.551 345.662C285.576 346.504 285.102 347.788 285.298 349.061L286.58 357.418C286.909 359.56 285.355 361.532 283.196 361.713L274.77 362.419C273.487 362.527 272.349 363.288 271.758 364.433L267.884 371.948C266.891 373.874 264.475 374.556 262.621 373.433L255.39 369.052C254.288 368.385 252.92 368.331 251.77 368.91L244.218 372.713C242.283 373.687 239.927 372.819 239.087 370.821L235.812 363.026C235.313 361.839 234.238 360.992 232.966 360.784L224.622 359.421C222.483 359.072 221.088 356.985 221.583 354.875L223.515 346.644C223.809 345.39 223.438 344.072 222.531 343.157L216.581 337.15C215.056 335.611 215.154 333.102 216.795 331.686L223.196 326.162C224.171 325.321 224.645 324.036 224.449 322.763L223.166 314.406C222.838 312.264 224.392 310.292 226.551 310.111L234.977 309.405C236.26 309.297 237.398 308.536 237.989 307.391L241.863 299.876C242.856 297.95 245.272 297.269 247.126 298.391L254.357 302.772C255.459 303.44 256.827 303.493 257.977 302.914L265.529 299.111Z" fill="#E80000"/>
<path d="M236.655 319.825L254.766 330.277" stroke="#121212" stroke-width="3.7403"/>
<path d="M260.72 330.849L281.588 329.521" stroke="#121212" stroke-width="3.7403"/>
<ellipse cx="245.206" cy="330.747" rx="3.36627" ry="2.99224" transform="rotate(20.2405 245.206 330.747)" fill="#E80000" stroke="#121212" stroke-width="3.7403"/>
<ellipse cx="265.558" cy="338.255" rx="3.36627" ry="2.99224" transform="rotate(20.2405 265.558 338.255)" fill="#E80000" stroke="#121212" stroke-width="3.7403"/>
<path d="M199.483 327.581C204.629 326.742 217.341 326.986 227.015 334.677" stroke="black" stroke-width="5.17647"/>
<path d="M278.787 353.043C283.194 353.513 293.558 356.573 299.756 365.053" stroke="black" stroke-width="5.17647"/>
<path d="M147.692 365.016C150.191 361.822 154.872 361.414 157.886 364.126L169.65 374.709C171.443 376.321 173.939 376.898 176.257 376.235L191.471 371.884C195.369 370.769 199.397 373.19 200.242 377.156L203.539 392.633C204.041 394.991 205.721 396.924 207.986 397.75L222.852 403.173C226.661 404.563 228.497 408.888 226.849 412.594L220.419 427.052C219.439 429.255 219.662 431.807 221.009 433.807L229.848 446.932C232.113 450.295 231.056 454.873 227.545 456.902L213.844 464.82C211.757 466.027 210.437 468.222 210.352 470.632L209.788 486.446C209.643 490.498 206.097 493.58 202.064 493.158L186.326 491.511C183.928 491.26 181.57 492.261 180.084 494.159L170.333 506.622C167.834 509.815 163.153 510.224 160.139 507.512L148.374 496.929C146.582 495.317 144.086 494.74 141.768 495.403L126.554 499.754C122.655 500.869 118.628 498.448 117.783 494.482L114.486 479.005C113.984 476.647 112.304 474.714 110.039 473.888L95.1732 468.465C91.3637 467.075 89.5283 462.75 91.176 459.044L97.6058 444.586C98.5854 442.383 98.3625 439.831 97.0158 437.831L88.1766 424.706C85.9115 421.343 86.9692 416.764 90.4801 414.735L104.18 406.817C106.268 405.611 107.587 403.416 107.673 401.006L108.237 385.192C108.381 381.14 111.928 378.058 115.961 378.48L131.699 380.127C134.097 380.378 136.455 379.377 137.941 377.478L147.692 365.016Z" fill="#FF5B23"/>
<path d="M115.348 423.122L154.347 426.367" stroke="#121212" stroke-width="7"/>
<path d="M164.883 422.583L199.152 403.687" stroke="#121212" stroke-width="7"/>
<ellipse cx="138.545" cy="434.799" rx="6.3" ry="5.6" transform="rotate(-4.99199 138.545 434.799)" stroke="#121212" stroke-width="7"/>
<ellipse cx="178.994" cy="431.266" rx="6.3" ry="5.6" transform="rotate(-4.99199 178.994 431.266)" stroke="#121212" stroke-width="7"/>
<path d="M76.0575 481.794C79.1105 474.333 89.7046 457.78 107.657 451.249" stroke="black" stroke-width="7.38109"/>
<path d="M208.376 427.385C216.003 424.778 235.44 421.87 252.168 431.097" stroke="black" stroke-width="7.38109"/>
</svg>
