<svg width="362" height="102" viewBox="0 0 362 102" fill="none" xmlns="http://www.w3.org/2000/svg">
<rect x="0.5" y="46.5" width="361" height="55" rx="27.5" fill="#FF5B23" fill-opacity="0.08"/>
<rect x="0.5" y="46.5" width="361" height="55" rx="27.5" stroke="#FF5B23"/>
<path d="M36.6035 67.6953H26.4434V66.5703H36.6035V67.6953ZM37.0605 67.748C37.0605 68.6562 37.0342 69.4736 36.9814 70.2002C36.9287 70.9268 36.7969 71.75 36.5859 72.6699L35.2324 72.5117C35.373 71.8965 35.4785 71.3223 35.5488 70.7891C35.6191 70.25 35.6602 69.7725 35.6719 69.3564C35.6836 68.9404 35.6895 68.4512 35.6895 67.8887V67.748V66.5703H37.0605V67.748ZM26.25 70.5957L26.0742 69.4883L36.1113 69.1895V70.1738L26.25 70.5957ZM38.8711 73.3379H24.6504V72.2129H38.8711V73.3379ZM37.1836 78.4531H27.7266V80.5801H26.3555V77.3984H35.8125V75.9219H26.3203V74.8496H37.1836V78.4531ZM37.7285 81.2129H26.3555V80.1055H37.7285V81.2129ZM52.8418 75.3594H51.4707V65.8145H52.8418V75.3594ZM52.8418 81.4238H51.4707V77.3457H42.3301V76.2031H52.8418V81.4238ZM42.0312 73.3203C43.5547 73.3145 44.8789 73.2793 46.0039 73.2148C47.1348 73.1504 48.3066 73.0273 49.5195 72.8457L49.6777 73.9707C48.4297 74.1641 47.2285 74.2959 46.0742 74.3662C44.9258 74.4365 43.5781 74.4688 42.0312 74.4629H40.7656V73.3203H42.0312ZM47.8672 71.0527H42.1016V73.9004H40.7656V69.9629H46.4961V67.8711H40.7305V66.7461H47.8672V71.0527ZM67.3398 81.4238H65.9688V65.7969H67.3398V81.4238ZM69.959 73.3906H67.0234V72.248H69.959V73.3906ZM64.457 69.4531H55.1582V68.3105H64.457V69.4531ZM59.8867 70.7539C60.6133 70.7539 61.2666 70.9062 61.8467 71.2109C62.4268 71.5156 62.8809 71.9404 63.209 72.4854C63.543 73.0303 63.7129 73.6484 63.7188 74.3398C63.7129 75.0371 63.543 75.6582 63.209 76.2031C62.8809 76.7422 62.4268 77.1641 61.8467 77.4688C61.2666 77.7734 60.6133 77.9258 59.8867 77.9258C59.1543 77.9258 58.4951 77.7734 57.9092 77.4688C57.3291 77.1641 56.875 76.7422 56.5469 76.2031C56.2188 75.6582 56.0547 75.0371 56.0547 74.3398C56.0547 73.6484 56.2188 73.0303 56.5469 72.4854C56.875 71.9404 57.3291 71.5156 57.9092 71.2109C58.4951 70.9062 59.1543 70.7539 59.8867 70.7539ZM59.8867 71.9141C59.4062 71.9141 58.9756 72.0166 58.5947 72.2217C58.2139 72.4268 57.915 72.7168 57.6982 73.0918C57.4814 73.4609 57.373 73.877 57.373 74.3398C57.373 74.8086 57.4814 75.2246 57.6982 75.5879C57.915 75.9512 58.2139 76.2383 58.5947 76.4492C58.9756 76.6543 59.4062 76.7539 59.8867 76.748C60.3613 76.7539 60.7891 76.6543 61.1699 76.4492C61.5566 76.2383 61.8555 75.9512 62.0664 75.5879C62.2832 75.2246 62.3945 74.8086 62.4004 74.3398C62.3945 73.877 62.2832 73.4609 62.0664 73.0918C61.8555 72.7168 61.5566 72.4268 61.1699 72.2217C60.7891 72.0166 60.3613 71.9141 59.8867 71.9141ZM60.5547 68.8379H59.1836V65.9902H60.5547V68.8379ZM82.4707 70.4551H77.6543V69.2949H82.4707V70.4551ZM82.4707 75.3945H77.6543V74.252H82.4707V75.3945ZM74.7539 67.0098C75.5098 67.0098 76.1836 67.2324 76.7754 67.6777C77.373 68.123 77.8359 68.7588 78.1641 69.585C78.4922 70.4111 78.6562 71.3691 78.6562 72.459C78.6562 73.5547 78.4922 74.5127 78.1641 75.333C77.8359 76.1475 77.373 76.7773 76.7754 77.2227C76.1836 77.668 75.5098 77.8906 74.7539 77.8906C73.9863 77.8906 73.3037 77.668 72.7061 77.2227C72.1143 76.7773 71.6543 76.1475 71.3262 75.333C70.998 74.5127 70.834 73.5547 70.834 72.459C70.834 71.3691 70.998 70.4111 71.3262 69.585C71.6543 68.7588 72.1143 68.123 72.7061 67.6777C73.3037 67.2324 73.9863 67.0098 74.7539 67.0098ZM74.7539 68.2402C74.2441 68.2402 73.793 68.416 73.4004 68.7676C73.0137 69.1191 72.709 69.6143 72.4863 70.2529C72.2637 70.8857 72.1523 71.6211 72.1523 72.459C72.1523 73.2969 72.2637 74.0352 72.4863 74.6738C72.709 75.3066 73.0137 75.7959 73.4004 76.1416C73.793 76.4873 74.2441 76.6602 74.7539 76.6602C75.2578 76.6602 75.709 76.4873 76.1074 76.1416C76.5059 75.7959 76.8135 75.3037 77.0303 74.665C77.2471 74.0264 77.3555 73.291 77.3555 72.459C77.3555 71.627 77.2471 70.8916 77.0303 70.2529C76.8135 69.6143 76.5059 69.1191 76.1074 68.7676C75.709 68.416 75.2578 68.2402 74.7539 68.2402ZM83.5078 81.459H82.1367V65.7969H83.5078V81.459ZM98.5117 67.4316C98.5059 69.043 98.2773 70.5371 97.8262 71.9141C97.3809 73.2852 96.6191 74.5684 95.541 75.7637C94.4688 76.9531 93.0273 77.9902 91.2168 78.875L90.4434 77.7676C92.0605 76.9941 93.3672 76.0889 94.3633 75.0518C95.3594 74.0146 96.0742 72.8809 96.5078 71.6504C96.9473 70.4199 97.1641 69.0664 97.1582 67.5898V67.4316H98.5117ZM97.8789 68.5742H91.3047V67.4316H97.8789V68.5742ZM90.7422 72.9688L90.5137 71.7383L96.9297 71.3164V72.3711L90.7422 72.9688ZM103.047 81.4238H101.658V65.7969H103.047V81.4238ZM119.742 79.4199H105.434V78.2773H119.742V79.4199ZM113.221 78.6289H111.867V74.498H113.221V78.6289ZM108.51 69.7344H116.631V66.9043H117.984V74.9023H107.121V66.9043H108.51V69.7344ZM116.631 73.7773V70.8594H108.51V73.7773H116.631ZM133.361 74.4629H122.568V73.3203H133.361V74.4629ZM135.049 79.2969H120.74V78.1367H135.049V79.2969ZM133.203 68.3984H123.939V73.8301H122.568V67.2559H133.203V68.3984ZM149.754 73.1445H146.748V71.9668H149.754V73.1445ZM144.656 70.6133C144.65 71.6562 144.501 72.6758 144.208 73.6719C143.921 74.668 143.502 75.5645 142.951 76.3613C142.406 77.1523 141.762 77.7734 141.018 78.2246L140.191 77.1699C140.883 76.7715 141.483 76.2236 141.993 75.5264C142.503 74.8291 142.893 74.0527 143.162 73.1973C143.438 72.3418 143.578 71.4805 143.584 70.6133V69.7871H144.656V70.6133ZM144.885 70.6133C144.891 71.457 145.028 72.2832 145.298 73.0918C145.573 73.9004 145.969 74.6357 146.484 75.2979C147 75.9541 147.604 76.4668 148.295 76.8359L147.504 77.873C146.748 77.4629 146.092 76.8799 145.535 76.124C144.984 75.3682 144.56 74.5127 144.261 73.5576C143.968 72.6025 143.824 71.6211 143.83 70.6133V69.7871H144.885V70.6133ZM147.82 69.8398H140.613V68.6973H147.82V69.8398ZM144.902 69.5586H143.584V66.377H144.902V69.5586ZM153.674 81.4238H152.355V65.7969H153.674V81.4238ZM150.51 80.6152H149.209V66.1836H150.51V80.6152ZM168.576 75.2715H167.188V65.7969H168.576V75.2715ZM167.803 71.7031H164.533V70.5605H167.803V71.7031ZM168.576 81.2129H158.363V76.1152H168.576V81.2129ZM159.734 80.0879H167.223V77.2227H159.734V80.0879ZM164.762 68.5742H155.639V67.4492H164.762V68.5742ZM160.191 69.3828C160.895 69.3828 161.521 69.5 162.072 69.7344C162.623 69.9688 163.051 70.2969 163.355 70.7188C163.666 71.1406 163.824 71.6211 163.83 72.1602C163.824 72.7168 163.666 73.2061 163.355 73.6279C163.051 74.0439 162.623 74.3691 162.072 74.6035C161.521 74.8379 160.895 74.9551 160.191 74.9551C159.488 74.9551 158.864 74.8379 158.319 74.6035C157.774 74.3691 157.347 74.0439 157.036 73.6279C156.726 73.2061 156.57 72.7168 156.57 72.1602C156.57 71.6211 156.726 71.1406 157.036 70.7188C157.347 70.2969 157.774 69.9688 158.319 69.7344C158.87 69.5 159.494 69.3828 160.191 69.3828ZM160.191 70.4551C159.74 70.4551 159.339 70.5254 158.987 70.666C158.642 70.8066 158.372 71.0088 158.179 71.2725C157.985 71.5361 157.889 71.832 157.889 72.1602C157.889 72.5 157.985 72.7988 158.179 73.0566C158.372 73.3145 158.642 73.5195 158.987 73.6719C159.339 73.8184 159.74 73.8945 160.191 73.9004C160.643 73.8945 161.041 73.8184 161.387 73.6719C161.738 73.5195 162.011 73.3145 162.204 73.0566C162.397 72.7988 162.494 72.5 162.494 72.1602C162.494 71.832 162.397 71.5361 162.204 71.2725C162.011 71.0088 161.738 70.8066 161.387 70.666C161.041 70.5254 160.643 70.4551 160.191 70.4551ZM160.877 68.2578H159.523V65.6562H160.877V68.2578ZM183.021 81.4238H181.65V65.7969H183.021V81.4238ZM185.641 73.3906H182.705V72.248H185.641V73.3906ZM180.139 69.4531H170.84V68.3105H180.139V69.4531ZM175.568 70.7539C176.295 70.7539 176.948 70.9062 177.528 71.2109C178.108 71.5156 178.562 71.9404 178.891 72.4854C179.225 73.0303 179.395 73.6484 179.4 74.3398C179.395 75.0371 179.225 75.6582 178.891 76.2031C178.562 76.7422 178.108 77.1641 177.528 77.4688C176.948 77.7734 176.295 77.9258 175.568 77.9258C174.836 77.9258 174.177 77.7734 173.591 77.4688C173.011 77.1641 172.557 76.7422 172.229 76.2031C171.9 75.6582 171.736 75.0371 171.736 74.3398C171.736 73.6484 171.9 73.0303 172.229 72.4854C172.557 71.9404 173.011 71.5156 173.591 71.2109C174.177 70.9062 174.836 70.7539 175.568 70.7539ZM175.568 71.9141C175.088 71.9141 174.657 72.0166 174.276 72.2217C173.896 72.4268 173.597 72.7168 173.38 73.0918C173.163 73.4609 173.055 73.877 173.055 74.3398C173.055 74.8086 173.163 75.2246 173.38 75.5879C173.597 75.9512 173.896 76.2383 174.276 76.4492C174.657 76.6543 175.088 76.7539 175.568 76.748C176.043 76.7539 176.471 76.6543 176.852 76.4492C177.238 76.2383 177.537 75.9512 177.748 75.5879C177.965 75.2246 178.076 74.8086 178.082 74.3398C178.076 73.877 177.965 73.4609 177.748 73.0918C177.537 72.7168 177.238 72.4268 176.852 72.2217C176.471 72.0166 176.043 71.9141 175.568 71.9141ZM176.236 68.8379H174.865V65.9902H176.236V68.8379ZM199.172 81.459H197.801V65.7969H199.172V81.459ZM198.152 72.9688H194.76V71.8086H198.152V72.9688ZM188.027 76.5195C189.551 76.5195 190.84 76.4873 191.895 76.4229C192.955 76.3525 194.033 76.2148 195.129 76.0098L195.234 77.1699C194.121 77.3691 193.02 77.5068 191.93 77.583C190.846 77.6533 189.545 77.6914 188.027 77.6973H186.832V76.5195H188.027ZM193.811 72.7227H188.203V76.8887H186.832V71.5801H192.475V68.3984H186.779V67.2559H193.811V72.7227ZM217.902 81.4238H216.531V65.7969H217.902V81.4238ZM220.434 73.3203H217.551V72.1602H220.434V73.3203ZM213.859 67.4844C213.854 69.002 213.602 70.4375 213.104 71.791C212.611 73.1387 211.832 74.3838 210.766 75.5264C209.699 76.6631 208.34 77.6387 206.688 78.4531L205.914 77.3633C207.361 76.6426 208.574 75.7959 209.553 74.8232C210.537 73.8447 211.272 72.7607 211.759 71.5713C212.251 70.3818 212.5 69.0957 212.506 67.7129V67.4844H213.859ZM213.209 68.6445H206.635V67.4844H213.209V68.6445ZM234.035 81.4238H232.646V65.7969H234.035V81.4238ZM229.412 67.502C229.406 69.0488 229.148 70.4961 228.639 71.8438C228.135 73.1914 227.338 74.4336 226.248 75.5703C225.158 76.7012 223.764 77.6738 222.064 78.4883L221.309 77.3633C222.814 76.6484 224.065 75.8047 225.062 74.832C226.063 73.8594 226.808 72.7812 227.294 71.5977C227.786 70.4082 228.035 69.1133 228.041 67.7129V67.502H229.412ZM228.604 68.627H222.029V67.502H228.604V68.627Z" fill="#121212"/>
<rect x="316" y="56" width="36" height="36" rx="18" fill="#FF5B23"/>
<path d="M336 68L342 74M342 74L336 80M342 74L326 74" stroke="white" stroke-width="2" stroke-linecap="round"/>
<path d="M27.2468 1.92489C28.2187 0.883862 29.869 0.883862 30.8409 1.92489L34.6336 5.98729C35.2114 6.60623 36.0671 6.88425 36.8984 6.72317L42.3545 5.66589C43.7527 5.39495 45.0879 6.365 45.2623 7.77848L45.9428 13.2943C46.0464 14.1347 46.5753 14.8626 47.3425 15.2208L52.3781 17.5725C53.6685 18.1752 54.1785 19.7448 53.4887 20.9908L50.7971 25.8532C50.3871 26.594 50.3871 27.4937 50.7971 28.2345L53.4887 33.0969C54.1785 34.3429 53.6685 35.9125 52.3781 36.5151L47.3425 38.8668C46.5753 39.2251 46.0464 39.953 45.9428 40.7934L45.2623 46.3092C45.0879 47.7227 43.7527 48.6927 42.3545 48.4218L36.8984 47.3645C36.0671 47.2034 35.2114 47.4815 34.6336 48.1004L30.8409 52.1628C29.869 53.2038 28.2187 53.2038 27.2468 52.1628L23.4541 48.1004C22.8763 47.4815 22.0206 47.2034 21.1893 47.3645L15.7332 48.4218C14.335 48.6927 12.9998 47.7227 12.8254 46.3092L12.1449 40.7934C12.0412 39.953 11.5124 39.2251 10.7452 38.8668L5.70963 36.5152C4.41922 35.9125 3.90923 34.3429 4.59897 33.0969L7.29055 28.2345C7.70063 27.4937 7.70063 26.594 7.29055 25.8532L4.59897 20.9908C3.90923 19.7448 4.41922 18.1752 5.70963 17.5725L10.7452 15.2208C11.5124 14.8626 12.0412 14.1347 12.1449 13.2943L12.8254 7.77849C12.9998 6.365 14.335 5.39495 15.7332 5.66589L21.1893 6.72317C22.0206 6.88425 22.8763 6.60623 23.4541 5.98729L27.2468 1.92489Z" fill="#FF5B23"/>
<path d="M14.1572 21.2676L27.7031 23.5949" stroke="#121212" stroke-width="2.45853"/>
<path d="M31.502 22.5928L44.0697 17.0287" stroke="#121212" stroke-width="2.45853"/>
<ellipse cx="21.9129" cy="26.0606" rx="2.21268" ry="1.96683" stroke="#121212" stroke-width="2.45853"/>
<ellipse cx="36.1726" cy="26.0606" rx="2.21268" ry="1.96683" stroke="#121212" stroke-width="2.45853"/>
<path fill-rule="evenodd" clip-rule="evenodd" d="M24.6619 39.6422L19.3965 47.8239L32.2309 63.0417L63.0006 49.7875L59.5451 40.4604L34.2054 49.7875L24.6619 39.6422Z" fill="#0088FF"/>
<path d="M24.6619 39.6422L34.2054 49.7875L59.5451 40.4604L49.1789 32.4424L24.6619 39.6422Z" fill="#0088FF"/>
<path d="M24.6619 39.6422L34.2054 49.7875M24.6619 39.6422L49.1789 32.4424L59.5451 40.4604M24.6619 39.6422L19.3965 47.8239L32.2309 63.0417M34.2054 49.7875L59.5451 40.4604M34.2054 49.7875L32.2309 63.0417M59.5451 40.4604L63.0006 49.7875L32.2309 63.0417" stroke="#121212" stroke-width="0.382492"/>
<path d="M40.7294 43.8041C40.6613 43.8297 40.5931 43.827 40.5247 43.7959L38.3025 42.8125C38.2645 42.7953 38.2322 42.7738 38.2057 42.748C38.1811 42.7216 38.1626 42.6918 38.1501 42.6586C38.137 42.6236 38.131 42.5881 38.1321 42.5519C38.1351 42.5151 38.1455 42.4786 38.1635 42.4425L39.1887 40.2392C39.219 40.169 39.2682 40.1211 39.3363 40.0955C39.41 40.0678 39.4775 40.0687 39.539 40.0981C39.6023 40.1269 39.6471 40.1762 39.6734 40.2462C39.6872 40.283 39.6929 40.3176 39.6904 40.3501C39.6897 40.3819 39.6834 40.4126 39.6714 40.4423L39.1649 41.518L38.7017 42.3569L38.6042 42.2486L39.4468 41.8911L42.9732 40.5665C43.1186 40.5118 43.212 40.4389 43.2534 40.3478C43.2941 40.2547 43.2861 40.1328 43.2293 39.9818L42.6163 38.3498C42.561 38.2025 42.4877 38.1082 42.3966 38.0668C42.3054 38.0254 42.1871 38.0321 42.0417 38.0867L40.4953 38.6676C40.4179 38.6966 40.3473 38.6959 40.2833 38.6653C40.2211 38.634 40.1772 38.5843 40.1516 38.5162C40.1261 38.4481 40.1273 38.3814 40.1553 38.3163C40.1834 38.2511 40.2351 38.2044 40.3106 38.176L41.857 37.5951C42.1792 37.4741 42.4381 37.4588 42.6338 37.5491C42.8307 37.637 42.9896 37.8419 43.1106 38.1641L43.7236 39.7961C43.8412 40.1091 43.8565 40.368 43.7697 40.5729C43.6839 40.7753 43.48 40.937 43.1578 41.058L39.6314 42.3826L38.7609 42.6655L38.7629 42.5198L39.6648 42.849L40.7544 43.3252C40.7829 43.3397 40.8079 43.3587 40.8293 43.3822C40.8526 43.4049 40.8708 43.4338 40.8839 43.4688C40.9109 43.5406 40.9097 43.6072 40.8802 43.6687C40.8533 43.7313 40.8031 43.7764 40.7294 43.8041Z" fill="white"/>
</svg>
