<svg width="72" height="38" viewBox="0 0 72 38" fill="none" xmlns="http://www.w3.org/2000/svg">
<rect width="72" height="30" rx="8" fill="#FF5B23"/>
<path d="M21.6211 16.2949V17.3613H16.6719V21.1758H15.3867V17.3613H10.4512V16.2949H21.6211ZM20.5547 10.3887V11.4414H16.6855C16.7607 12.7949 18.6064 14.1143 20.9375 14.4082L20.4727 15.4473C18.5039 15.1738 16.8291 14.251 16.043 13C15.2432 14.2646 13.5547 15.1738 11.5859 15.4473L11.1074 14.4082C13.4385 14.1143 15.2979 12.8223 15.3867 11.4414H11.5039V10.3887H15.3867V8.91211H16.6719V10.3887H20.5547ZM26.7437 11.8242C26.7437 13.3691 27.8922 14.791 29.7789 15.3789L29.15 16.4043C27.7418 15.96 26.6754 15.0303 26.1285 13.834C25.5816 15.1191 24.5221 16.1172 23.0797 16.5957L22.4508 15.584C24.3238 14.9824 25.4586 13.4785 25.4586 11.8242V11.5371H22.7926V10.4844H25.4586V8.99414H26.7574V10.4844H29.4098V11.5371H26.7437V11.8242ZM32.6637 8.92578V18.0449H31.3648V13.6836H28.9859V12.6309H31.3648V8.92578H32.6637ZM32.9918 19.8496V20.9023H24.7066V17.2383H26.0055V19.8496H32.9918ZM47.8855 9.28125V10.2656H46.1082V12.3848H47.8309V13.3828H38.8484V12.3848H40.5848V10.2656H38.7938V9.28125H47.8855ZM48.9383 14.2852V15.3105H37.7684V14.2852H48.9383ZM47.5301 16.2676V19.0703H40.3934V20.0547H47.8719V21.0391H39.1219V18.1543H46.2449V17.2383H39.1082V16.2676H47.5301ZM41.8699 12.3848H44.8094V10.2656H41.8699V12.3848ZM60.2133 8.92578V18.0312H58.9828V13.5879H57.4789V17.7031H56.2621V9.14453H57.4789V12.5215H58.9828V8.92578H60.2133ZM60.5687 19.8496V20.9023H52.0922V17.1836H53.3773V19.8496H60.5687ZM54.9359 9.95117V13.5469H51.5727V15.2012C53.0902 15.2012 54.2455 15.1191 55.5922 14.8594L55.7289 15.8984C54.184 16.1855 52.9125 16.2402 51.1215 16.2402H50.3148V12.5625H53.6918V10.9902H50.2875V9.95117H54.9359Z" fill="white"/>
<path d="M36 38L28.2058 29L43.7942 29L36 38Z" fill="#FF5B23"/>
</svg>
