<svg width="32" height="32" viewBox="0 0 32 32" fill="none" xmlns="http://www.w3.org/2000/svg">
<path d="M9.33317 16.0002C9.33317 14.2321 10.0355 12.5364 11.2858 11.2861C12.536 10.0359 14.2317 9.3335 15.9998 9.3335C17.7679 9.3335 19.4636 10.0359 20.7139 11.2861C21.9641 12.5364 22.6665 14.2321 22.6665 16.0002V24.0002H9.33317V16.0002Z" fill="#FF5B23"/>
<path d="M15.9998 16.0002V24.0002V16.0002Z" fill="#FF5B23"/>
<path d="M6.6665 26.6667C6.6665 25.9594 6.94746 25.2811 7.44755 24.781C7.94765 24.281 8.62593 24 9.33317 24H22.6665C23.3737 24 24.052 24.281 24.5521 24.781C25.0522 25.2811 25.3332 25.9594 25.3332 26.6667V29.3333H6.6665V26.6667Z" fill="#FFCEBD"/>
<path d="M27.9998 16.0001H29.3332M24.6665 6.00008L23.9998 6.66675M2.6665 16.0001H3.99984M15.9998 2.66675V4.00008M6.5721 6.57208L7.51477 7.51475" stroke="#FF5B23" stroke-width="1.5" stroke-linecap="round" stroke-linejoin="round"/>
</svg>
