<svg width="25" height="18" viewBox="0 0 25 18" fill="none" xmlns="http://www.w3.org/2000/svg">
<path d="M17 6L14 9M11 12L14 9M14 9L11 6M14 9L17 12M2.11772 7.69592L7.27147 1.68284C7.65144 1.23952 8.20615 0.984375 8.79002 0.984375H22C23.1046 0.984375 24 1.87775 24 2.98232C24 7.05175 24 12.2255 24 15.0151C24 16.1212 23.1022 17.0139 21.9961 17.0117L8.78534 16.9861C8.20417 16.985 7.65224 16.7312 7.27318 16.2906L2.12023 10.3019C1.4759 9.55309 1.47484 8.44599 2.11772 7.69592Z" stroke="#686868" stroke-width="1.5" stroke-linecap="round"/>
</svg>
