<svg width="32" height="32" viewBox="0 0 32 32" fill="none" xmlns="http://www.w3.org/2000/svg">
<path d="M17.679 5.33337C19.9291 5.57047 22.031 6.56848 23.6369 8.16237C25.2428 9.75625 26.2566 11.8505 26.5107 14.0988M17.679 9.74922C18.7647 9.96332 19.761 10.4988 20.5386 11.2863C21.3162 12.0737 21.8392 13.0767 22.0396 14.1651" stroke="#FFBDBD" stroke-width="2.20792" stroke-linecap="round" stroke-linejoin="round"/>
<path d="M26.4557 21.8045V25.1164C26.457 25.4238 26.394 25.7281 26.2708 26.0099C26.1477 26.2916 25.967 26.5444 25.7405 26.7523C25.5139 26.9601 25.2464 27.1184 24.9552 27.2169C24.6639 27.3154 24.3553 27.352 24.0491 27.3243C20.652 26.9552 17.3889 25.7944 14.5219 23.9351C11.8545 22.2402 9.59308 19.9787 7.89813 17.3114C6.0324 14.4313 4.87133 11.1523 4.50896 7.74C4.48137 7.43471 4.51765 7.12703 4.61549 6.83654C4.71333 6.54605 4.87059 6.27911 5.07724 6.05272C5.2839 5.82634 5.53543 5.64546 5.81582 5.52161C6.09621 5.39776 6.39932 5.33365 6.70585 5.33336H10.0177C10.5535 5.32809 11.0729 5.51781 11.4791 5.86716C11.8853 6.21651 12.1507 6.70166 12.2257 7.23217C12.3654 8.29205 12.6247 9.33271 12.9984 10.3343C13.147 10.7294 13.1791 11.1589 13.0911 11.5717C13.003 11.9846 12.7985 12.3635 12.5016 12.6637L11.0996 14.0657C12.6712 16.8295 14.9596 19.1179 17.7234 20.6895L19.1254 19.2874C19.4256 18.9906 19.8045 18.7861 20.2174 18.698C20.6302 18.61 21.0596 18.6421 21.4548 18.7907C22.4564 19.1644 23.497 19.4236 24.5569 19.5634C25.0932 19.6391 25.5829 19.9092 25.933 20.3224C26.2831 20.7356 26.4692 21.2631 26.4557 21.8045Z" fill="#E80000"/>
</svg>
