<svg width="32" height="32" viewBox="0 0 32 32" fill="none" xmlns="http://www.w3.org/2000/svg">
<path d="M11.7065 18.5115C8.40395 18.5115 5.46703 20.1556 3.59722 22.7072C3.19479 23.2563 2.99357 23.5309 3.00016 23.902C3.00524 24.1887 3.17985 24.5504 3.39863 24.7274C3.68181 24.9565 4.07423 24.9565 4.85907 24.9565H18.5539C19.3388 24.9565 19.7312 24.9565 20.0144 24.7274C20.2332 24.5504 20.4078 24.1887 20.4128 23.902C20.4194 23.5309 20.2182 23.2563 19.8158 22.7072C17.946 20.1556 15.009 18.5115 11.7065 18.5115Z" fill="#FFCEBD" stroke="#FFCEBD" stroke-width="2" stroke-linecap="round" stroke-linejoin="round"/>
<path d="M11.7064 15.2891C13.6839 15.2891 15.287 13.6574 15.287 11.6445C15.287 9.63171 13.6839 8 11.7064 8C9.72887 8 8.12578 9.63171 8.12578 11.6445C8.12578 13.6574 9.72887 15.2891 11.7064 15.2891Z" fill="#FFCEBD" stroke="#FFCEBD" stroke-width="2" stroke-linecap="round" stroke-linejoin="round"/>
<path d="M20.1936 17.6257C23.8007 17.6257 26.9948 19.4228 29.0178 22.1833C29.3559 22.6447 29.7994 23.1839 29.7864 23.9177C29.781 24.2192 29.6918 24.5079 29.5793 24.741C29.4672 24.9732 29.2954 25.2243 29.0588 25.4158C28.7419 25.6722 28.3928 25.7673 28.0686 25.8074C27.7701 25.8443 27.4114 25.8425 27.0412 25.8425H13.3469C12.9768 25.8425 12.6181 25.8443 12.3196 25.8074C11.9954 25.7673 11.6462 25.6722 11.3293 25.4158C11.0927 25.2243 10.921 24.9732 10.8088 24.741C10.6963 24.5079 10.6071 24.2192 10.6018 23.9177C10.5888 23.1839 11.0323 22.6447 11.3703 22.1833C13.3933 19.4229 16.5867 17.6259 20.1936 17.6257Z" fill="#FFCEBD" stroke="#F4F2F3" stroke-width="1.77201" stroke-linecap="round" stroke-linejoin="round"/>
<path d="M20.1944 7.11426C22.6757 7.11451 24.6602 9.15739 24.6602 11.6445C24.6602 14.1317 22.6757 16.1746 20.1944 16.1748C17.7128 16.1748 15.7276 14.1318 15.7276 11.6445C15.7276 9.15723 17.7128 7.11426 20.1944 7.11426Z" fill="#FFCEBD" stroke="#F4F2F3" stroke-width="1.77201" stroke-linecap="round" stroke-linejoin="round"/>
<path d="M20.194 18.5115C16.8915 18.5115 13.9546 20.1556 12.0848 22.7072C11.6823 23.2563 11.4811 23.5309 11.4877 23.902C11.4928 24.1887 11.6674 24.5504 11.8862 24.7274C12.1693 24.9565 12.5618 24.9565 13.3466 24.9565H27.0415C27.8263 24.9565 28.2187 24.9565 28.5019 24.7274C28.7207 24.5504 28.8953 24.1887 28.9004 23.902C28.907 23.5309 28.7057 23.2563 28.3033 22.7072C26.4335 20.1556 23.4966 18.5115 20.194 18.5115Z" fill="#FF5B23" stroke="#FF5B23" stroke-width="2" stroke-linecap="round" stroke-linejoin="round"/>
<path d="M20.1939 15.2891C22.1714 15.2891 23.7745 13.6574 23.7745 11.6445C23.7745 9.63171 22.1714 8 20.1939 8C18.2164 8 16.6133 9.63171 16.6133 11.6445C16.6133 13.6574 18.2164 15.2891 20.1939 15.2891Z" fill="#FF5B23" stroke="#FF5B23" stroke-width="2" stroke-linecap="round" stroke-linejoin="round"/>
</svg>
