<svg width="50" height="46" viewBox="0 0 50 46" fill="none" xmlns="http://www.w3.org/2000/svg">
<g clip-path="url(#clip0_1815_9272)">
<path d="M26.8187 9.02372C27.1842 8.23095 28.3514 8.37252 28.5167 9.22967L29.4072 13.8468C29.5363 14.5164 30.3352 14.8036 30.8611 14.3695L34.4875 11.3761C35.1607 10.8204 36.1509 11.4544 35.928 12.2984L34.727 16.8447C34.5528 17.504 35.1479 18.1094 35.8102 17.9464L40.3762 16.823C41.2238 16.6144 41.8409 17.6152 41.2738 18.2789L38.2192 21.8538C37.7762 22.3723 38.0497 23.176 38.7171 23.3165L43.3184 24.2854C44.1726 24.4652 44.2943 25.6347 43.4954 25.9866L39.1922 27.8821C38.5681 28.1571 38.4659 28.9998 39.0062 29.416L42.7314 32.2853C43.423 32.818 43.0253 33.9245 42.1528 33.8949L37.4533 33.7356C36.7717 33.7125 36.3139 34.4275 36.6202 35.0369L38.7315 39.2384C39.1235 40.0184 38.2851 40.8427 37.5118 40.4375L33.3468 38.255C32.7428 37.9384 32.0201 38.384 32.0316 39.0659L32.1109 43.7674C32.1256 44.6402 31.0126 45.0191 30.4918 44.3186L27.6862 40.545C27.2793 39.9977 26.4349 40.0856 26.1494 40.705L24.1809 44.9753C23.8155 45.7681 22.6483 45.6265 22.4829 44.7694L21.5925 40.1522C21.4633 39.4826 20.6644 39.1954 20.1385 39.6295L16.5121 42.6229C15.8389 43.1786 14.8487 42.5446 15.0717 41.7006L16.2727 37.1544C16.4469 36.495 15.8517 35.8896 15.1895 36.0526L10.6235 37.1761C9.77579 37.3846 9.15873 36.3838 9.72581 35.7201L12.7804 32.1452C13.2234 31.6267 12.9499 30.8231 12.2825 30.6825L7.68123 29.7137C6.82701 29.5338 6.70531 28.3643 7.50419 28.0124L11.8074 26.1169C12.4315 25.842 12.5337 24.9992 11.9934 24.583L8.2682 21.7137C7.57662 21.181 7.97437 20.0746 8.84682 20.1041L13.5463 20.2634C14.2279 20.2865 14.6857 19.5715 14.3795 18.9622L12.2681 14.7606C11.8761 13.9806 12.7146 13.1563 13.4878 13.5615L17.6528 15.744C18.2569 16.0606 18.9795 15.6151 18.968 14.9332L18.8887 10.2316C18.874 9.35881 19.987 8.97993 20.5079 9.68047L23.3135 13.454C23.7204 14.0013 24.5647 13.9134 24.8502 13.2941L26.8187 9.02372Z" fill="#DF0000"/>
<path d="M16.0442 19.6771L24.7064 23.7851" stroke="#121212" stroke-width="1.71487"/>
<path d="M27.4478 23.8266L36.9353 22.4499" stroke="#121212" stroke-width="1.71487"/>
<ellipse cx="20.3554" cy="24.3528" rx="1.54338" ry="1.37189" transform="rotate(15.6238 20.3554 24.3528)" fill="#DF0000" stroke="#121212" stroke-width="1.71487"/>
<ellipse cx="29.9318" cy="27.0329" rx="1.54338" ry="1.37189" transform="rotate(15.6238 29.9318 27.0329)" fill="#DF0000" stroke="#121212" stroke-width="1.71487"/>
<path d="M46.3853 29.5521L48.5864 30.004L46.3853 29.5521Z" fill="#DF0000"/>
<path d="M44.2447 11.4242L42.9065 12.3996L44.2447 11.4242Z" fill="#DF0000"/>
<path d="M1.75512 20.3892L3.95619 20.8411L1.75512 20.3892Z" fill="#DF0000"/>
<path d="M29.6197 2.70275L29.1445 5.10551L29.6197 2.70275Z" fill="#DF0000"/>
<path d="M11.3606 5.74547L12.5808 7.7637L11.3606 5.74547Z" fill="#DF0000"/>
<path d="M46.3853 29.5521L48.5864 30.004M44.2447 11.4242L42.9065 12.3996M1.75512 20.3892L3.95619 20.8411M29.6197 2.70275L29.1445 5.10551M11.3606 5.74547L12.5808 7.7637" stroke="#DF0000" stroke-width="2.86801" stroke-linecap="round" stroke-linejoin="round"/>
</g>
<defs>
<clipPath id="clip0_1815_9272">
<rect width="50" height="46" fill="white"/>
</clipPath>
</defs>
</svg>
