<svg width="112" height="20" viewBox="0 0 112 20" fill="none" xmlns="http://www.w3.org/2000/svg">
<g clip-path="url(#clip0_201_13902)">
<path d="M0 9.25C-0.414214 9.25 -0.75 9.58579 -0.75 10C-0.75 10.4142 -0.414214 10.75 0 10.75V10V9.25ZM110.53 10.5303C110.823 10.2374 110.823 9.76256 110.53 9.46967L105.757 4.6967C105.464 4.40381 104.99 4.40381 104.697 4.6967C104.404 4.98959 104.404 5.46447 104.697 5.75736L108.939 10L104.697 14.2426C104.404 14.5355 104.404 15.0104 104.697 15.3033C104.99 15.5962 105.464 15.5962 105.757 15.3033L110.53 10.5303ZM1.96429 10.75C2.3785 10.75 2.71429 10.4142 2.71429 10C2.71429 9.58579 2.3785 9.25 1.96429 9.25V10V10.75ZM5.89286 9.25C5.47864 9.25 5.14286 9.58579 5.14286 10C5.14286 10.4142 5.47864 10.75 5.89286 10.75V10V9.25ZM9.82143 10.75C10.2356 10.75 10.5714 10.4142 10.5714 10C10.5714 9.58579 10.2356 9.25 9.82143 9.25V10V10.75ZM13.75 9.25C13.3358 9.25 13 9.58579 13 10C13 10.4142 13.3358 10.75 13.75 10.75V10V9.25ZM17.6786 10.75C18.0928 10.75 18.4286 10.4142 18.4286 10C18.4286 9.58579 18.0928 9.25 17.6786 9.25V10V10.75ZM21.6071 9.25C21.1929 9.25 20.8571 9.58579 20.8571 10C20.8571 10.4142 21.1929 10.75 21.6071 10.75V10V9.25ZM25.5357 10.75C25.9499 10.75 26.2857 10.4142 26.2857 10C26.2857 9.58579 25.9499 9.25 25.5357 9.25V10V10.75ZM29.4643 9.25C29.0501 9.25 28.7143 9.58579 28.7143 10C28.7143 10.4142 29.0501 10.75 29.4643 10.75V10V9.25ZM33.3929 10.75C33.8071 10.75 34.1429 10.4142 34.1429 10C34.1429 9.58579 33.8071 9.25 33.3929 9.25V10V10.75ZM37.3214 9.25C36.9072 9.25 36.5714 9.58579 36.5714 10C36.5714 10.4142 36.9072 10.75 37.3214 10.75V10V9.25ZM41.25 10.75C41.6642 10.75 42 10.4142 42 10C42 9.58579 41.6642 9.25 41.25 9.25V10V10.75ZM45.1786 9.25C44.7644 9.25 44.4286 9.58579 44.4286 10C44.4286 10.4142 44.7644 10.75 45.1786 10.75V10V9.25ZM49.1071 10.75C49.5214 10.75 49.8571 10.4142 49.8571 10C49.8571 9.58579 49.5214 9.25 49.1071 9.25V10V10.75ZM53.0357 9.25C52.6215 9.25 52.2857 9.58579 52.2857 10C52.2857 10.4142 52.6215 10.75 53.0357 10.75V10V9.25ZM56.9643 10.75C57.3785 10.75 57.7143 10.4142 57.7143 10C57.7143 9.58579 57.3785 9.25 56.9643 9.25V10V10.75ZM60.8928 9.25C60.4786 9.25 60.1428 9.58579 60.1428 10C60.1428 10.4142 60.4786 10.75 60.8928 10.75V10V9.25ZM64.8214 10.75C65.2356 10.75 65.5714 10.4142 65.5714 10C65.5714 9.58579 65.2356 9.25 64.8214 9.25V10V10.75ZM68.75 9.25C68.3358 9.25 68 9.58579 68 10C68 10.4142 68.3358 10.75 68.75 10.75V10V9.25ZM72.6786 10.75C73.0928 10.75 73.4286 10.4142 73.4286 10C73.4286 9.58579 73.0928 9.25 72.6786 9.25V10V10.75ZM76.6071 9.25C76.1929 9.25 75.8571 9.58579 75.8571 10C75.8571 10.4142 76.1929 10.75 76.6071 10.75V10V9.25ZM80.5357 10.75C80.9499 10.75 81.2857 10.4142 81.2857 10C81.2857 9.58579 80.9499 9.25 80.5357 9.25V10V10.75ZM84.4643 9.25C84.0501 9.25 83.7143 9.58579 83.7143 10C83.7143 10.4142 84.0501 10.75 84.4643 10.75V10V9.25ZM88.3929 10.75C88.8071 10.75 89.1429 10.4142 89.1429 10C89.1429 9.58579 88.8071 9.25 88.3929 9.25V10V10.75ZM92.3214 9.25C91.9072 9.25 91.5714 9.58579 91.5714 10C91.5714 10.4142 91.9072 10.75 92.3214 10.75V10V9.25ZM96.25 10.75C96.6642 10.75 97 10.4142 97 10C97 9.58579 96.6642 9.25 96.25 9.25V10V10.75ZM100.179 9.25C99.7644 9.25 99.4286 9.58579 99.4286 10C99.4286 10.4142 99.7644 10.75 100.179 10.75V10V9.25ZM104.107 10.75C104.521 10.75 104.857 10.4142 104.857 10C104.857 9.58579 104.521 9.25 104.107 9.25V10V10.75ZM108.036 9.25C107.622 9.25 107.286 9.58579 107.286 10C107.286 10.4142 107.622 10.75 108.036 10.75V10V9.25ZM0 10V10.75H1.96429V10V9.25H0V10ZM5.89286 10V10.75H9.82143V10V9.25H5.89286V10ZM13.75 10V10.75H17.6786V10V9.25H13.75V10ZM21.6071 10V10.75H25.5357V10V9.25H21.6071V10ZM29.4643 10V10.75H33.3929V10V9.25H29.4643V10ZM37.3214 10V10.75H41.25V10V9.25H37.3214V10ZM45.1786 10V10.75H49.1071V10V9.25H45.1786V10ZM53.0357 10V10.75H56.9643V10V9.25H53.0357V10ZM60.8928 10V10.75H64.8214V10V9.25H60.8928V10ZM68.75 10V10.75H72.6786V10V9.25H68.75V10ZM76.6071 10V10.75H80.5357V10V9.25H76.6071V10ZM84.4643 10V10.75H88.3929V10V9.25H84.4643V10ZM92.3214 10V10.75H96.25V10V9.25H92.3214V10ZM100.179 10V10.75H104.107V10V9.25H100.179V10ZM108.036 10V10.75H110V10V9.25H108.036V10Z" fill="#B4B4B4"/>
</g>
<defs>
<clipPath id="clip0_201_13902">
<rect width="112" height="20" fill="white"/>
</clipPath>
</defs>
</svg>
