<svg width="31" height="32" viewBox="0 0 31 32" fill="none" xmlns="http://www.w3.org/2000/svg">
<path d="M14.2808 1.12255C14.8819 0.29298 16.118 0.29298 16.719 1.12255L17.6004 2.33906C18.0433 2.95033 18.8704 3.13911 19.5347 2.78054L20.8566 2.06692C21.7581 1.58029 22.8718 2.11662 23.0534 3.12482L23.3197 4.60329C23.4535 5.34619 24.1168 5.87514 24.8708 5.84028L26.3715 5.77091C27.3948 5.7236 28.1655 6.69003 27.8917 7.67717L27.4901 9.12477C27.2883 9.85215 27.6564 10.6165 28.3509 10.9123L29.7331 11.5009C30.6756 11.9023 30.9506 13.1074 30.2756 13.8779L29.2857 15.008C28.7883 15.5758 28.7883 16.4241 29.2857 16.9919L30.2756 18.1219C30.9506 18.8925 30.6756 20.0976 29.7331 20.499L28.3509 21.0876C27.6564 21.3834 27.2883 22.1477 27.4901 22.8751L27.8917 24.3227C28.1655 25.3099 27.3948 26.2763 26.3715 26.229L24.8708 26.1596C24.1168 26.1247 23.4535 26.6537 23.3197 27.3966L23.0534 28.8751C22.8718 29.8833 21.7581 30.4196 20.8566 29.933L19.5347 29.2193C18.8704 28.8608 18.0433 29.0496 17.6004 29.6608L16.719 30.8773C16.118 31.7069 14.8819 31.7069 14.2808 30.8773L13.3994 29.6608C12.9566 29.0496 12.1294 28.8608 11.4652 29.2193L10.1433 29.933C9.24179 30.4196 8.1281 29.8833 7.94651 28.8751L7.68022 27.3966C7.54641 26.6537 6.88313 26.1247 6.12908 26.1596L4.62842 26.229C3.60509 26.2763 2.83439 25.3099 3.10823 24.3227L3.50979 22.8751C3.71157 22.1477 3.34347 21.3834 2.64898 21.0876L1.26683 20.499C0.324316 20.0976 0.0492561 18.8925 0.724278 18.1219L1.71416 16.9919C2.21156 16.4241 2.21156 15.5758 1.71416 15.008L0.724278 13.8779C0.0492562 13.1074 0.324316 11.9023 1.26683 11.5009L2.64898 10.9123C3.34347 10.6165 3.71157 9.85215 3.50979 9.12477L3.10823 7.67717C2.83439 6.69003 3.6051 5.7236 4.62842 5.77091L6.12908 5.84028C6.88313 5.87514 7.54641 5.34619 7.68022 4.60329L7.94651 3.12482C8.1281 2.11662 9.24179 1.58029 10.1433 2.06692L11.4652 2.78054C12.1294 3.13911 12.9566 2.95033 13.3994 2.33906L14.2808 1.12255Z" fill="#E80000"/>
</svg>
