<svg width="23" height="23" viewBox="0 0 23 23" fill="none" xmlns="http://www.w3.org/2000/svg">
<path d="M10.6192 0.346838C10.768 -0.115676 11.4224 -0.115677 11.5712 0.346837L12.5061 3.25325C12.6224 3.61458 13.083 3.71972 13.3445 3.4446L15.4479 1.23168C15.7826 0.87952 16.3722 1.16345 16.3056 1.64471L15.8869 4.66896C15.8349 5.04494 16.2043 5.33954 16.5593 5.20512L19.4145 4.12398C19.8689 3.95193 20.2769 4.46355 20.008 4.86825L18.3186 7.41133C18.1086 7.7275 18.3136 8.1532 18.6918 8.18612L21.7333 8.45088C22.2174 8.49302 22.363 9.131 21.9452 9.37897L19.3197 10.9372C18.9933 11.1309 18.9933 11.6034 19.3197 11.7972L21.9452 13.3554C22.363 13.6034 22.2174 14.2414 21.7333 14.2835L18.6918 14.5483C18.3136 14.5812 18.1086 15.0069 18.3186 15.323L20.008 17.8661C20.2769 18.2708 19.8689 18.7824 19.4145 18.6104L16.5593 17.5293C16.2043 17.3948 15.8349 17.6894 15.8869 18.0654L16.3056 21.0897C16.3722 21.5709 15.7826 21.8549 15.4479 21.5027L13.3445 19.2898C13.083 19.0147 12.6224 19.1198 12.5061 19.4811L11.5712 22.3875C11.4224 22.8501 10.768 22.8501 10.6192 22.3875L9.68429 19.4811C9.56806 19.1198 9.10741 19.0147 8.8459 19.2898L6.74251 21.5027C6.40778 21.8549 5.81819 21.5709 5.88482 21.0897L6.30351 18.0654C6.35556 17.6894 5.98615 17.3948 5.63118 17.5293L2.77593 18.6104C2.32155 18.7824 1.91355 18.2708 2.18239 17.8661L3.87178 15.323C4.08182 15.0069 3.87681 14.5812 3.49867 14.5483L0.457084 14.2835C-0.0269412 14.2414 -0.172558 13.6034 0.245252 13.3554L2.87075 11.7972C3.19716 11.6034 3.19716 11.1309 2.87075 10.9372L0.245253 9.37897C-0.172557 9.131 -0.0269422 8.49302 0.457083 8.45088L3.49867 8.18612C3.87681 8.1532 4.08182 7.7275 3.87178 7.41133L2.18239 4.86825C1.91355 4.46355 2.32155 3.95193 2.77593 4.12398L5.63117 5.20512C5.98615 5.33954 6.35556 5.04494 6.30351 4.66896L5.88482 1.64472C5.81819 1.16345 6.40778 0.879519 6.74251 1.23168L8.8459 3.4446C9.10741 3.71972 9.56806 3.61458 9.68429 3.25325L10.6192 0.346838Z" fill="#DF0000"/>
</svg>
