<svg width="42" height="42" viewBox="0 0 42 42" fill="none" xmlns="http://www.w3.org/2000/svg">
<path d="M22.5036 8.17651H27.0147C27.8124 8.17651 28.5773 8.4955 29.1413 9.06331C29.7053 9.63111 30.0221 10.4012 30.0221 11.2042V32.3982" fill="#FFCEBD"/>
<path d="M5.96289 32.3982H10.474H5.96289Z" fill="#FFCEBD"/>
<path d="M22.5036 32.3982H36.037H22.5036Z" fill="#FFCEBD"/>
<path d="M22.5036 8.17651H27.0147C27.8124 8.17651 28.5773 8.4955 29.1413 9.06331C29.7053 9.63111 30.0221 10.4012 30.0221 11.2042V32.3982H22.5036V9.02732V8.17651Z" fill="#FFCEBD"/>
<path d="M22.5036 8.17651H27.0147C27.8124 8.17651 28.5773 8.4955 29.1413 9.06331C29.7053 9.63111 30.0221 10.4012 30.0221 11.2042V32.3982H22.5036M22.5036 8.17651V32.3982M22.5036 8.17651V9.02732V32.3982M5.96289 32.3982H10.474M22.5036 32.3982H36.037" stroke="#FFCEBD" stroke-width="1.07407" stroke-linecap="round" stroke-linejoin="round"/>
<path d="M17.9929 20.2873V20.3024V20.2873Z" fill="#FF5B23"/>
<path d="M22.504 9.02725V33.4866C22.5039 33.7165 22.4518 33.9434 22.3517 34.1501C22.2515 34.3567 22.1059 34.5377 21.9259 34.6792C21.7458 34.8208 21.5362 34.9192 21.3127 34.967C21.0893 35.0147 20.858 35.0107 20.6364 34.955L10.4744 32.3981V10.5411C10.4745 9.86594 10.6987 9.21018 11.1115 8.67805C11.5243 8.14592 12.1019 7.76795 12.7525 7.60423L18.7673 6.09037C19.2105 5.97884 19.6731 5.97043 20.1201 6.06578C20.567 6.16113 20.9865 6.35774 21.3467 6.64068C21.7068 6.92362 21.9983 7.28545 22.1988 7.69871C22.3993 8.11197 22.5037 8.56731 22.504 9.02725Z" fill="#FF5B23"/>
<path d="M17.9929 20.2874V20.3025" stroke="#FFCEBD" stroke-width="3" stroke-linecap="round" stroke-linejoin="round"/>
</svg>
