<svg width="52" height="17" viewBox="0 0 52 17" fill="none" xmlns="http://www.w3.org/2000/svg">
<path d="M42.5189 15.6144H35.166V1.36811H42.5189V6.84451H44.07V1.02344H47.1145V16.4569H44.07V10.0231L42.5189 10.0806V15.6144ZM39.6467 12.8379V4.1446H38.0383V12.8379H39.6467ZM48.0528 16.4569V1.02344H51.0782V16.4569H48.0528Z" fill="#FF5B23"/>
<path d="M27.4467 5.69483H18.0449V2.84174H20.9746V0.543945H24.517V2.84174H27.4467V5.69483ZM22.7745 13.0669C23.1384 13.0669 23.4447 12.9137 23.7128 12.5882C23.9426 12.2818 24.0766 11.784 24.0766 11.0946C24.0766 10.4436 23.9426 9.94574 23.7128 9.60107C23.4447 9.2947 23.1384 9.12237 22.7745 9.12237C22.3916 9.12237 22.0661 9.2947 21.8363 9.60107C21.5682 9.94574 21.4533 10.4436 21.4533 11.0946C21.4533 11.784 21.5682 12.2818 21.8171 12.5882C22.0469 12.9137 22.3724 13.0669 22.7745 13.0669ZM22.7745 15.9391C21.3193 15.9391 20.2087 15.4987 19.4427 14.6179C18.6768 13.7562 18.2938 12.5882 18.2938 11.0946C18.2938 9.63937 18.6768 8.45218 19.4427 7.57136C20.1895 6.69054 21.3001 6.25013 22.7745 6.25013C24.1532 6.25013 25.2447 6.69054 26.0489 7.57136C26.2787 7.82029 26.4702 8.10751 26.6233 8.41388H27.1595C27.4276 8.43303 27.7148 8.43303 28.0212 8.41388C28.2892 8.41388 28.5765 8.41388 28.8637 8.39473C29.1318 8.39473 29.3807 8.37559 29.6105 8.33729V1.02265H32.9614V16.4562H29.6105V11.3627C29.2275 11.4202 28.8062 11.4585 28.3275 11.4585C27.9254 11.4776 27.5616 11.4776 27.2169 11.4776C27.1595 12.7988 26.7765 13.8328 26.1063 14.6179C25.3404 15.4987 24.2298 15.9391 22.7745 15.9391Z" fill="#FF5B23"/>
<path d="M6.37913 6.59489C6.87699 6.59489 7.33654 6.49915 7.73866 6.26937C8.12162 6.07789 8.3131 5.71407 8.33225 5.17792C8.3131 4.68007 8.10247 4.31625 7.70036 4.08647C7.2791 3.87584 6.83869 3.76095 6.37913 3.76095C5.91957 3.76095 5.47916 3.87584 5.0579 4.08647C4.63664 4.31625 4.42601 4.68007 4.42601 5.17792C4.42601 5.71407 4.61749 6.07789 5.0196 6.26937C5.40257 6.49915 5.84298 6.59489 6.37913 6.59489ZM6.37913 9.56287C4.77068 9.56287 3.50689 9.2182 2.58777 8.52887C1.63036 7.85868 1.1708 6.76723 1.1708 5.27366C1.1708 4.58432 1.30484 3.95243 1.57292 3.37798C1.84099 2.84183 2.20481 2.36313 2.68352 1.98016C3.14307 1.5972 3.67922 1.30997 4.33027 1.09934C4.94301 0.907858 5.63235 0.792969 6.37913 0.792969C7.10676 0.792969 7.77695 0.907858 8.42799 1.09934C9.04074 1.30997 9.59604 1.5972 10.0747 1.98016C10.5343 2.36313 10.8981 2.84183 11.1662 3.37798C11.4343 3.95243 11.5683 4.58432 11.5875 5.27366C11.5683 6.76723 11.0896 7.85868 10.1705 8.52887C9.21307 9.2182 7.94929 9.56287 6.37913 9.56287ZM0.921875 10.1948H8.96415C9.82582 10.1948 10.5726 10.1756 11.2236 10.1373C11.8555 10.099 12.3534 10.0224 12.6981 9.88839V1.02275H16.049V16.4562H12.6981V12.8181C12.564 12.8947 12.43 12.933 12.2576 12.9521C11.9896 13.0096 11.6832 13.0479 11.3385 13.0862C10.9939 13.1244 10.63 13.1436 10.2471 13.1436C9.86411 13.1627 9.48115 13.1627 9.09818 13.1627H8.10247V16.4562H4.52175V13.1627H0.921875V10.1948Z" fill="#FF5B23"/>
</svg>
