<svg width="56" height="46" viewBox="0 0 56 46" fill="none" xmlns="http://www.w3.org/2000/svg">
<path d="M29.8349 4.99494C30.6804 4.35014 31.8951 4.55638 32.4804 5.44409L34.7644 8.9082C35.1123 9.43599 35.7074 9.74756 36.3394 9.73287L40.4876 9.63649C41.5506 9.6118 42.4121 10.4927 42.3638 11.5549L42.1754 15.6999C42.1467 16.3314 42.445 16.9332 42.965 17.2928L46.3775 19.6531C47.252 20.2579 47.4313 21.4769 46.7679 22.3079L44.1791 25.5505C43.7847 26.0446 43.6722 26.7068 43.8815 27.3033L45.255 31.2187C45.607 32.222 45.0355 33.3136 44.0103 33.5959L40.01 34.6976C39.4005 34.8654 38.9203 35.3351 38.739 35.9407L37.5488 39.9156C37.2438 40.9342 36.1398 41.4814 35.1445 41.1073L31.2606 39.6472C30.6689 39.4247 30.0043 39.5225 29.5016 39.9058L26.2023 42.422C25.3569 43.0668 24.1421 42.8606 23.5568 41.9729L21.2729 38.5088C20.9249 37.981 20.3298 37.6694 19.6978 37.6841L15.5497 37.7805C14.4867 37.8052 13.6251 36.9243 13.6734 35.8621L13.8618 31.7171C13.8905 31.0856 13.5922 30.4837 13.0723 30.1241L9.65974 27.7639C8.78523 27.1591 8.606 25.94 9.2694 25.1091L11.8582 21.8664C12.2526 21.3724 12.365 20.7102 12.1558 20.1136L10.7823 16.1983C10.4303 15.1949 11.0018 14.1034 12.0269 13.8211L16.0273 12.7194C16.6368 12.5515 17.117 12.0818 17.2983 11.4762L18.4885 7.50132C18.7935 6.48271 19.8975 5.93555 20.8928 6.3097L24.7767 7.76976C25.3684 7.99221 26.033 7.8945 26.5356 7.51114L29.8349 4.99494Z" fill="#FF5B23"/>
<path d="M17.7811 17.5952L27.4608 21.001" stroke="#121212" stroke-width="1.83551"/>
<path d="M30.3846 20.7388L40.3305 18.2138" stroke="#121212" stroke-width="1.83551"/>
<ellipse cx="22.8934" cy="22.0943" rx="1.65196" ry="1.46841" transform="rotate(9.63575 22.8934 22.0943)" stroke="#121212" stroke-width="1.83551"/>
<ellipse cx="33.3899" cy="23.8763" rx="1.65196" ry="1.46841" transform="rotate(9.63575 33.3899 23.8763)" stroke="#121212" stroke-width="1.83551"/>
<path d="M3.92711 29.8799C5.19571 28.1893 8.97974 24.691 13.9671 24.2227" stroke="black" stroke-width="1.93544"/>
<path d="M41.1014 24.8376C43.2093 24.6812 48.3333 25.2304 51.9664 28.6791" stroke="black" stroke-width="1.93544"/>
</svg>
