<svg width="36" height="36" viewBox="0 0 36 36" fill="none" xmlns="http://www.w3.org/2000/svg">
<path fill-rule="evenodd" clip-rule="evenodd" d="M16.1429 6C15.4166 6 14.8116 6.53155 14.7513 7.22261C14.5498 9.53175 12.1294 10.9512 10.0157 9.99998L9.84906 9.92498C9.1921 9.62933 8.40746 9.86385 8.04432 10.4644L6.18723 13.5356C5.82409 14.1361 6.0037 14.9022 6.60034 15.2976C8.53508 16.5798 8.53508 19.4202 6.60034 20.7024C6.0037 21.0978 5.82409 21.8638 6.18723 22.4644L8.04432 25.5356C8.40746 26.1361 9.1921 26.3707 9.84906 26.075L10.0157 26C12.1294 25.0487 14.5498 26.4682 14.7513 28.7774C14.8116 29.4685 15.4166 30 16.1429 30H19.8571C20.5834 30 21.1884 29.4685 21.2487 28.7774C21.4503 26.4682 23.8706 25.0487 25.9843 26L26.1509 26.075C26.8079 26.3707 27.5925 26.1361 27.9557 25.5356L29.8128 22.4644C30.1759 21.8638 29.9963 21.0978 29.3997 20.7024C27.4649 19.4202 27.4649 16.5798 29.3997 15.2976C29.9963 14.9022 30.1759 14.1361 29.8128 13.5356L27.9557 10.4644C27.5925 9.86385 26.8079 9.62933 26.1509 9.92498L25.9843 9.99998C23.8706 10.9512 21.4503 9.53175 21.2487 7.22261C21.1884 6.53155 20.5834 6 19.8571 6H16.1429ZM18 22C20.2091 22 22 20.2091 22 18C22 15.7909 20.2091 14 18 14C15.7909 14 14 15.7909 14 18C14 20.2091 15.7909 22 18 22Z" fill="#FFCEBD"/>
<path fill-rule="evenodd" clip-rule="evenodd" d="M18 22C20.2091 22 22 20.2091 22 18C22 15.7909 20.2091 14 18 14C15.7909 14 14 15.7909 14 18C14 20.2091 15.7909 22 18 22Z" fill="#FF5B23"/>
</svg>
