<svg width="50" height="46" viewBox="0 0 50 46" fill="none" xmlns="http://www.w3.org/2000/svg">
<g clip-path="url(#clip0_1064_22869)">
<path d="M25.7491 8.38037C26.536 7.76615 27.6785 7.94696 28.2373 8.77415L30.4179 12.0021C30.7501 12.4939 31.312 12.7801 31.9052 12.7596L35.7983 12.6255C36.7959 12.5911 37.614 13.4089 37.5799 14.4066L37.4467 18.2997C37.4264 18.8929 37.7127 19.4547 38.2046 19.7868L41.4331 21.9666C42.2604 22.5252 42.4415 23.6677 41.8275 24.4547L39.4314 27.526C39.0663 27.994 38.9677 28.6169 39.1705 29.1746L40.5011 32.8358C40.8421 33.7739 40.3171 34.8047 39.3577 35.0805L35.614 36.1569C35.0436 36.3209 34.5977 36.7669 34.4339 37.3373L33.3584 41.0813C33.0828 42.0408 32.0522 42.566 31.114 42.2253L27.4525 40.8956C26.8947 40.693 26.2718 40.7917 25.804 41.1569L22.7333 43.5537C21.9463 44.168 20.8038 43.9872 20.245 43.16L18.0644 39.9321C17.7322 39.4403 17.1703 39.154 16.5772 39.1745L12.684 39.3087C11.6864 39.343 10.8683 38.5252 10.9025 37.5275L11.0357 33.6344C11.056 33.0412 10.7696 32.4794 10.2777 32.1473L7.04926 29.9675C6.22194 29.4089 6.04084 28.2665 6.65486 27.4794L9.05095 24.4081C9.41602 23.9401 9.51459 23.3173 9.31185 22.7595L7.98121 19.0984C7.64021 18.1602 8.16524 17.1294 9.12462 16.8536L12.8684 15.7772C13.4388 15.6132 13.8846 15.1673 14.0485 14.5968L15.1239 10.8528C15.3995 9.89336 16.4301 9.36807 17.3684 9.70883L21.0298 11.0386C21.5877 11.2411 22.2105 11.1424 22.6784 10.7772L25.7491 8.38037Z" fill="#E80000"/>
<path d="M14.5662 20.3362L23.689 23.4315" stroke="#121212" stroke-width="1.72322"/>
<path d="M26.4309 23.1543L35.7411 20.6792" stroke="#121212" stroke-width="1.72322"/>
<ellipse cx="19.4125" cy="24.5054" rx="1.55062" ry="1.37833" transform="rotate(8.99279 19.4125 24.5054)" fill="#E80000" stroke="#121212" stroke-width="1.72322"/>
<ellipse cx="29.2849" cy="26.0681" rx="1.55062" ry="1.37833" transform="rotate(8.99279 29.2849 26.0681)" fill="#E80000" stroke="#121212" stroke-width="1.72322"/>
<path d="M44.3289 27.3843L46.3984 27.8091L44.3289 27.3843Z" fill="#E80000"/>
<path d="M42.3163 10.3403L41.0581 11.2574L42.3163 10.3403Z" fill="#E80000"/>
<path d="M2.36734 18.7692L4.4368 19.1941L2.36734 18.7692Z" fill="#E80000"/>
<path d="M28.5658 2.14033L28.119 4.39941L28.5658 2.14033Z" fill="#E80000"/>
<path d="M11.3985 5.00111L12.5457 6.89867L11.3985 5.00111Z" fill="#E80000"/>
<path d="M44.3289 27.3843L46.3984 27.8091M42.3163 10.3403L41.0581 11.2574M2.36734 18.7692L4.4368 19.1941M28.5658 2.14033L28.119 4.39941M11.3985 5.00111L12.5457 6.89867" stroke="#E80000" stroke-width="2.69652" stroke-linecap="round" stroke-linejoin="round"/>
</g>
<defs>
<clipPath id="clip0_1064_22869">
<rect width="50" height="46" fill="white" transform="translate(0 0.000488281)"/>
</clipPath>
</defs>
</svg>
