<svg width="32" height="32" viewBox="0 0 32 32" fill="none" xmlns="http://www.w3.org/2000/svg">
<path d="M18.6666 25.3334C18.6666 26.8061 17.4727 28 15.9999 28C14.5272 28 13.3333 26.8061 13.3333 25.3334L13.3333 21.3334H18.6666V25.3334Z" fill="#FF5B23"/>
<path d="M13.3335 21.3333H9.3335C7.12436 21.3333 5.3335 19.5424 5.3335 17.3333V15.3333H26.6668V17.3333C26.6668 19.5424 24.876 21.3333 22.6668 21.3333H18.6668H13.3335Z" fill="#FF5B23"/>
<path d="M16.0002 4H8.00016C6.5274 4 5.3335 5.19391 5.3335 6.66667V15.3333H26.6668V6.66667C26.6668 5.19391 25.4729 4 24.0002 4H21.3335L19.708 6.03189C19.1742 6.69909 18.1594 6.69909 17.6257 6.03188L16.0002 4Z" fill="#FFCEBD"/>
</svg>
