<svg width="37" height="36" viewBox="0 0 37 36" fill="none" xmlns="http://www.w3.org/2000/svg">
<path d="M18.3246 18.7501C13.7129 18.7501 9.61174 21.0461 7.00072 24.6091C6.43876 25.3759 6.15778 25.7593 6.16697 26.2775C6.17407 26.6779 6.41789 27.183 6.7234 27.4302C7.11884 27.7501 7.66682 27.7501 8.76279 27.7501H27.8865C28.9825 27.7501 29.5305 27.7501 29.9259 27.4302C30.2314 27.183 30.4752 26.6779 30.4823 26.2775C30.4915 25.7593 30.2105 25.3759 29.6486 24.6091C27.0375 21.0461 22.9364 18.7501 18.3246 18.7501Z" fill="#FFCEBD" stroke="#FFCEBD" stroke-width="2.625" stroke-linecap="round" stroke-linejoin="round"/>
<path d="M18.3245 14.25C21.0859 14.25 23.3245 11.9714 23.3245 9.1607C23.3245 6.34996 21.0859 4.07141 18.3245 4.07141C15.563 4.07141 13.3245 6.34996 13.3245 9.1607C13.3245 11.9714 15.563 14.25 18.3245 14.25Z" fill="#FFCEBD" stroke="#FFCEBD" stroke-width="2.625" stroke-linecap="round" stroke-linejoin="round"/>
<rect x="19.6665" y="18" width="14.25" height="14.25" rx="7.125" fill="#FF5B23"/>
<path d="M22.7202 25.125H26.7916M26.7916 25.125H30.8631M26.7916 25.125V21.0536M26.7916 25.125V29.1964" stroke="#FFCEBD" stroke-width="2.04167" stroke-linecap="round"/>
</svg>
