<svg width="101" height="136" viewBox="0 0 101 136" fill="none" xmlns="http://www.w3.org/2000/svg">
<g clip-path="url(#clip0_628_21818)">
<path d="M54.5946 32.8803C55.2064 30.5262 57.6842 29.1829 59.9907 29.9547L68.9916 32.9667C70.3629 33.4256 71.8739 33.1465 72.9908 32.228L80.3219 26.1995C82.2005 24.6546 84.9947 25.0242 86.407 27.0044L91.9185 34.7318C92.7582 35.9091 94.1446 36.5714 95.5881 36.4849L105.063 35.9168C107.49 35.7712 109.534 37.7126 109.512 40.1447L109.429 49.6358C109.417 51.0818 110.149 52.4326 111.368 53.2111L119.366 58.3204C121.416 59.6297 121.928 62.4013 120.481 64.3565L114.835 71.986C113.975 73.1484 113.774 74.6717 114.302 76.0178L117.77 84.8529C118.659 87.117 117.444 89.6602 115.124 90.3915L106.072 93.2453C104.693 93.6801 103.634 94.7941 103.271 96.1936L100.883 105.38C100.271 107.734 97.7936 109.077 95.487 108.305L86.4862 105.293C85.1149 104.835 83.6039 105.114 82.487 106.032L75.1559 112.061C73.2773 113.606 70.4831 113.236 69.0707 111.256L63.5593 103.528C62.7196 102.351 61.3332 101.689 59.8897 101.775L50.4152 102.343C47.9873 102.489 45.9441 100.548 45.9654 98.1155L46.0485 88.6244C46.0612 87.1784 45.3289 85.8276 44.1102 85.0491L36.1113 79.9398C34.0615 78.6305 33.5496 75.8589 34.9964 73.9037L40.6424 66.2742C41.5026 65.1118 41.7041 63.5885 41.1757 62.2424L37.7077 53.4073C36.8189 51.1432 38.0339 48.6 40.3536 47.8687L49.4059 45.0148C50.785 44.58 51.8434 43.4661 52.2071 42.0665L54.5946 32.8803Z" fill="#FF5B23"/>
<path d="M50.6819 72.5766L72.9135 65.0447" stroke="#121212" stroke-width="4.19872"/>
<path d="M77.8062 60.4455L92.1458 41.8619" stroke="#121212" stroke-width="4.19872"/>
<ellipse cx="66.2343" cy="73.459" rx="3.77885" ry="3.35898" transform="rotate(-28.4647 66.2343 73.459)" fill="#FF5B23" stroke="#121212" stroke-width="4.19872"/>
<ellipse cx="87.6449" cy="61.8512" rx="3.77885" ry="3.35898" transform="rotate(-28.4647 87.6449 61.8512)" fill="#FF5B23" stroke="#121212" stroke-width="4.19872"/>
<path d="M58.2588 126.5C54.7588 113.5 58.7586 99.5 67.7588 95" stroke="#121212" stroke-width="4"/>
<ellipse cx="54.9551" cy="129.421" rx="8.5" ry="3" transform="rotate(-25.9847 54.9551 129.421)" fill="#121212"/>
</g>
<defs>
<clipPath id="clip0_628_21818">
<rect width="101" height="136" fill="white"/>
</clipPath>
</defs>
</svg>
