<svg width="50" height="46" viewBox="0 0 50 46" fill="none" xmlns="http://www.w3.org/2000/svg">
<path d="M20.788 6.22354C21.3674 5.41489 22.5106 5.26623 23.2776 5.89979L26.2706 8.3721C26.7266 8.74878 27.3444 8.86429 27.9057 8.67783L31.5898 7.45401C32.5339 7.14039 33.5461 7.69206 33.7942 8.65544L34.7624 12.4148C34.9099 12.9876 35.3418 13.4442 35.9055 13.6232L39.6054 14.7986C40.5535 15.0998 41.0481 16.1411 40.6826 17.0663L39.2562 20.6768C39.0389 21.2269 39.1199 21.8501 39.4707 22.3264L41.7731 25.452C42.3631 26.2529 42.1512 27.3861 41.3116 27.9198L38.0354 30.0023C37.5363 30.3196 37.2355 30.8714 37.2394 31.4629L37.2649 35.3449C37.2714 36.3397 36.4339 37.1319 35.441 37.0701L31.5664 36.8292C30.9761 36.7925 30.4085 37.0622 30.064 37.543L27.8028 40.6985C27.2233 41.5072 26.0802 41.6558 25.3132 41.0223L22.3202 38.55C21.8642 38.1733 21.2464 38.0578 20.6851 38.2442L17.001 39.468C16.0569 39.7817 15.0447 39.23 14.7966 38.2666L13.8283 34.5072C13.6808 33.9344 13.249 33.4779 12.6853 33.2988L8.9854 32.1234C8.03727 31.8222 7.54264 30.781 7.90817 29.8557L9.33459 26.2452C9.55191 25.6951 9.47087 25.0719 9.12009 24.5957L6.81771 21.4701C6.2277 20.6691 6.43958 19.536 7.27914 19.0023L10.5553 16.9197C11.0545 16.6025 11.3552 16.0506 11.3514 15.4592L11.3259 11.5772C11.3194 10.5824 12.1568 9.7902 13.1497 9.85193L17.0243 10.0928C17.6146 10.1295 18.1823 9.85987 18.5268 9.3791L20.788 6.22354Z" fill="#FF5B23"/>
<path d="M13.4614 20.8005L23.054 21.1925" stroke="#121212" stroke-width="1.71731"/>
<path d="M25.5972 20.156L33.8014 15.1698" stroke="#121212" stroke-width="1.71731"/>
<ellipse cx="19.2679" cy="23.4228" rx="1.54558" ry="1.37385" transform="rotate(-7.4091 19.2679 23.4228)" stroke="#121212" stroke-width="1.71731"/>
<ellipse cx="29.1461" cy="22.1384" rx="1.54558" ry="1.37385" transform="rotate(-7.4091 29.1461 22.1384)" stroke="#121212" stroke-width="1.71731"/>
<path d="M4.43791 35.5883C5.10905 33.7282 7.53451 29.5612 11.8673 27.7745" stroke="black" stroke-width="1.8108"/>
<path d="M36.3078 20.8832C38.1504 20.1652 42.8844 19.2513 47.0801 21.3397" stroke="black" stroke-width="1.8108"/>
</svg>
