<svg width="107" height="45" viewBox="0 0 107 45" fill="none" xmlns="http://www.w3.org/2000/svg">
<g filter="url(#filter0_d_454_19924)">
<rect x="3" width="92" height="39" rx="5.61702" fill="#FF5B23"/>
<path d="M30.9414 20.6211V21.9746H24.543V27.4766H22.9082V21.9746H16.5801V20.6211H30.9414ZM29.5879 12.6758V14.0117H24.7188C24.7451 15.9629 27.1709 17.7031 30.1504 18.1074L29.5352 19.4258C26.9512 19.0215 24.7188 17.7471 23.7695 15.9453C22.7939 17.7471 20.5703 19.0215 18.0215 19.4258L17.3887 18.1074C20.333 17.7031 22.7588 15.9629 22.8203 14.0117H17.916V12.6758H29.5879ZM37.0195 12.8691C39.5156 12.8516 41.291 14.3984 41.3086 16.6133C41.291 18.8281 39.5156 20.375 37.0195 20.375C34.541 20.375 32.7129 18.8281 32.7305 16.6133C32.7129 14.3984 34.541 12.8516 37.0195 12.8691ZM37.0195 14.3105C35.4902 14.3105 34.3652 15.2246 34.3828 16.6133C34.3652 18.002 35.4902 18.916 37.0195 18.916C38.5488 18.916 39.6738 18.002 39.6738 16.6133C39.6738 15.2246 38.5488 14.3105 37.0195 14.3105ZM44.9121 11.7441V27.5293H43.2422V11.7441H44.9121ZM31.9746 22.748C34.8398 22.748 38.8125 22.7129 42.2578 22.2207L42.3809 23.4336C38.8125 24.1191 34.998 24.1367 32.1855 24.1367L31.9746 22.748ZM64.3984 11.7617V23.293H62.7285V11.7617H64.3984ZM64.873 25.8066V27.1602H54.0977V22.2031H55.7852V25.8066H64.873ZM57.0684 14.1875C57.0508 16.4902 58.5273 18.5996 60.9531 19.4434L60.0918 20.7793C58.2725 20.1025 56.9277 18.7666 56.2246 17.0527C55.5303 18.8809 54.168 20.3486 52.3223 21.0605L51.4258 19.7422C53.9043 18.8281 55.3633 16.5605 55.3633 14.1875V12.623H57.0684V14.1875ZM80.2852 13.959V15.3125H67.3301V13.959H72.9902V11.9727H74.6426V13.959H80.2852ZM81.0586 24.3652V25.7188H66.6445V24.3652H72.9902V22.2734C70.2305 22.1064 68.5605 21.0166 68.5605 19.2676C68.5605 17.3691 70.5645 16.2617 73.8164 16.2617C77.0332 16.2617 79.0547 17.3691 79.0547 19.2676C79.0547 21.0166 77.376 22.1064 74.6426 22.2734V24.3652H81.0586ZM73.8164 17.5801C71.5664 17.5801 70.248 18.1777 70.2656 19.2676C70.248 20.3574 71.5664 20.9551 73.8164 20.9727C76.0312 20.9551 77.3496 20.3574 77.3496 19.2676C77.3496 18.1777 76.0312 17.5801 73.8164 17.5801Z" fill="white"/>
<path d="M104.192 19.5L95 24.8617L95 14.1383L104.192 19.5Z" fill="#FF5B23"/>
</g>
<defs>
<filter id="filter0_d_454_19924" x="0.473684" y="0" width="106.244" height="44.0526" filterUnits="userSpaceOnUse" color-interpolation-filters="sRGB">
<feFlood flood-opacity="0" result="BackgroundImageFix"/>
<feColorMatrix in="SourceAlpha" type="matrix" values="0 0 0 0 0 0 0 0 0 0 0 0 0 0 0 0 0 0 127 0" result="hardAlpha"/>
<feOffset dy="2.52632"/>
<feGaussianBlur stdDeviation="1.26316"/>
<feComposite in2="hardAlpha" operator="out"/>
<feColorMatrix type="matrix" values="0 0 0 0 0 0 0 0 0 0 0 0 0 0 0 0 0 0 0.25 0"/>
<feBlend mode="normal" in2="BackgroundImageFix" result="effect1_dropShadow_454_19924"/>
<feBlend mode="normal" in="SourceGraphic" in2="effect1_dropShadow_454_19924" result="shape"/>
</filter>
</defs>
</svg>
